<?xml version="1.0" encoding="UTF-8" standalone="no"?>
<!-- Created with Inkscape (http://www.inkscape.org/) -->

<svg
   xmlns:dc="http://purl.org/dc/elements/1.1/"
   xmlns:cc="http://creativecommons.org/ns#"
   xmlns:rdf="http://www.w3.org/1999/02/22-rdf-syntax-ns#"
   xmlns:svg="http://www.w3.org/2000/svg"
   xmlns="http://www.w3.org/2000/svg"
   xmlns:sodipodi="http://sodipodi.sourceforge.net/DTD/sodipodi-0.dtd"
   xmlns:inkscape="http://www.inkscape.org/namespaces/inkscape"
   id="svg4167"
   version="1.1"
   inkscape:version="0.92.5 (2060ec1f9f, 2020-04-08)"
   width="134.70798"
   height="273.78635"
   viewBox="0 0 134.70798 273.78635"
   sodipodi:docname="colander-east.svg">
  <metadata
     id="metadata4173">
    <rdf:RDF>
      <cc:Work
         rdf:about="">
        <dc:format>image/svg+xml</dc:format>
        <dc:type
           rdf:resource="http://purl.org/dc/dcmitype/StillImage" />
        <dc:title></dc:title>
      </cc:Work>
    </rdf:RDF>
  </metadata>
  <defs
     id="defs4171" />
  <sodipodi:namedview
     pagecolor="#ffffff"
     bordercolor="#666666"
     borderopacity="1"
     objecttolerance="10"
     gridtolerance="10"
     guidetolerance="10"
     inkscape:pageopacity="0"
     inkscape:pageshadow="2"
     inkscape:window-width="2560"
     inkscape:window-height="1369"
     id="namedview4169"
     showgrid="false"
     inkscape:zoom="1.4209709"
     inkscape:cx="308.04141"
     inkscape:cy="35.403553"
     inkscape:window-x="0"
     inkscape:window-y="0"
     inkscape:window-maximized="1"
     inkscape:current-layer="svg4167" />
  <path
     style="fill:#000000"
     d="m 1.5583184,79.992136 c 2.08703,-4.72548 4.17014,-4.54039 5.51559,0.49007 0.94461,3.53182 11.2952896,9.8976 12.9363996,7.95603 1.85427,-2.19375 1.27237,-4.66994 -1.3281,-5.65151 -3.31638,-1.25179 -3.88092,-2.31635 -4.50424,-8.49363 -0.56033,-5.55321 0.23702,-9.07136 2.05593,-9.07136 1.49143,0 2.88366,3.99296 1.93014,5.53577 -0.54031,0.87426 6.7364,5.32894 7.48386,4.58148 0.17933,-0.17933 2.56422,-3.76399 5.29977,-7.96592 15.89026,-24.40815 39.48505,-42.65003 67.00715,-51.80536 11.371582,-3.7828 15.941722,-6.3289502 18.930152,-10.5465002 5.26989,-7.43737 11.59907,-6.516 14.57696,2.12204 2.31704,6.7211102 1.58366,9.9311202 -2.6755,11.7107102 -4.09741,1.71201 -4.25487,2.41393 -2.18677,9.74857 12.14179,43.06164 10.27324,173.606454 -3.10257,216.758914 l -2.80394,9.04593 2.37975,3.50676 c 2.60477,3.83835 3.11926,9.03383 1.29176,13.04475 -3.27232,7.18198 -15.78701,-0.5165 -15.78701,-9.71147 0,-3.00243 -4.43973,-6.5457 -10.898452,-8.69786 -30.00937,-9.99965 -55.93607,-31.8388 -71.75109,-60.43897 l -3.1892,-5.76741 -2.78375,1.26569 c -4.8375,2.19947 -6.06501,3.6953 -6.06501,7.39081 0,5.36796 -3.9520396,4.549 -4.2064696,-0.87168 -0.31315,-6.67154 0.28417,-7.75107 5.7086496,-10.31726 5.63431,-2.66547 5.62202,-2.64066 3.6493,-7.36205 -6.80445,-16.28535 -9.2177796,-43.9152 -5.58626,-63.95625 2.04585,-11.29019 2.15146,-10.94661 -4.0183496,-13.070924 -8.40619,-2.8943 -11.64929,-10.89195 -7.8787,-19.42937 z m 1.92772,10.96064 c 0.66137,1.69005 0.7594,1.65543 1.32755,-0.46875 1.3592,-5.0817 0.35698,-10.60521 -1.57393,-8.67431 -0.80633,0.80634 -0.64292,6.87058 0.24638,9.14306 z m 8.9249296,6.84189 c 6.76914,2.19483 7.32574,2.15935 7.69698,-0.49069 0.12431,-0.88742 0.4347,-2.68156 0.68975,-3.98697 0.77806,-3.98239 -13.6543396,-8.77902 -14.7197796,-4.89215 -1.53172,5.58792 -0.46545,7.16546 6.3330496,9.36981 z m -0.28941,98.677074 c 0.6394,0 0.87463,-1.15334 0.60706,-2.97643 -0.34329,-2.33896 0.0684,-3.41109 1.92245,-5.00583 1.35273,-1.16357 1.95426,-2.27973 1.40993,-2.61615 -1.93096,-1.1934 -4.98335,3.02375 -4.98335,6.88493 0,2.103 0.45273,3.71348 1.04391,3.71348 z m 2.23734,-49.08903 c 0.77344,0.2968 1.40625,1.15221 1.40625,1.90091 0,0.7487 -0.42188,1.10055 -0.9375,0.78187 -1.52679,-0.94361 -1.07296,3.87674 0.48687,5.17129 0.99315,0.82424 1.25282,2.09658 0.85773,4.20263 -0.43072,2.29598 -0.1955,3.16293 0.98068,3.61427 1.21422,0.46594 1.41962,0.19139 0.9541,-1.27534 -0.33969,-1.07026 -0.16555,-1.8691 0.40744,-1.8691 1.28004,0 1.2616,1.25537 -0.0845,5.74804 -0.93385,3.11694 -0.85571,3.87532 0.56059,5.44032 0.90515,1.00017 1.39809,2.21915 1.09545,2.70884 -0.30264,0.48969 0.0496,1.38817 0.78269,1.9966 0.73313,0.60844 1.27519,1.87302 1.20459,2.81019 -0.16681,2.21457 3.11767,9.50024 4.02895,8.93703 0.38523,-0.23808 1.27555,0.2639 1.97851,1.11551 0.95239,1.1538 0.99289,1.64442 0.15889,1.92525 -0.61557,0.20727 -0.89705,0.95578 -0.62553,1.66335 0.69955,1.82301 3.15099,0.62698 3.15099,-1.53735 0,-0.99227 -0.63281,-2.04696 -1.40625,-2.34375 -1.56318,-0.59986 -1.9427,-3.15153 -0.46873,-3.15153 0.51562,0 0.98644,-1.79297 1.04625,-3.98438 0.0598,-2.1914 0.31625,-3.17045 0.56986,-2.17567 0.25361,0.99478 1.07555,2.42313 1.82652,3.1741 0.96525,0.96526 1.073,1.65782 0.36764,2.36318 -1.4414,1.4414 -1.22641,4.37277 0.32071,4.37277 0.85828,0 1.18188,-0.73626 0.9271,-2.10938 -0.21525,-1.16015 -0.1485,-1.60573 0.14835,-0.99016 0.80322,1.66565 3.21075,0.38743 2.54381,-1.35059 -0.35591,-0.92748 -0.18824,-1.24721 0.44787,-0.85407 0.55921,0.34561 1.2146,0.0984 1.45642,-0.54933 0.28716,-0.76916 0.69866,-0.54677 1.18625,0.64106 0.47578,1.15909 0.34534,1.95251 -0.35961,2.18749 -1.59567,0.5319 -1.3626,4.60097 0.30008,5.23901 1.50817,0.57872 1.97026,3.41097 0.55655,3.41097 -0.46735,0 -0.62909,0.84375 -0.35941,1.875 0.26969,1.03125 0.89652,1.875 1.39298,1.875 0.51521,0 0.6375,1.20718 0.28491,2.8125 -0.38865,1.76952 -0.24244,2.8125 0.39427,2.8125 0.55659,0 1.01198,0.86865 1.01198,1.93033 0,3.15693 -1.79699,1.08476 -2.91717,-3.36388 -0.57262,-2.27411 -1.68794,-4.67154 -2.47847,-5.32763 -1.23855,-1.02791 -1.34506,-0.90218 -0.77016,0.90915 0.50128,1.57938 0.29449,2.10203 -0.8317,2.10203 -1.71411,0 -3.21429,-3.00232 -1.74492,-3.49211 0.53345,-0.17782 0.76686,-1.38548 0.51869,-2.68369 l -0.45122,-2.36038 -1.81216,1.94512 c -0.99669,1.06983 -2.22732,1.68855 -2.73472,1.37496 -0.50742,-0.31359 0.39766,1.57549 2.01129,4.19797 1.61362,2.62246 3.5305,4.76813 4.2597,4.76813 0.72922,0 1.32584,0.79455 1.32584,1.76566 0,1.01311 0.85106,1.98821 1.99677,2.28782 1.3005,0.34009 1.80755,1.01524 1.45413,1.93622 -0.7634,1.9894 7.79886,11.4651 8.83907,9.78201 0.61885,-1.00132 0.97789,-0.99103 1.96787,0.0564 0.99031,1.04782 0.98354,1.36414 -0.0372,1.73632 -0.89638,0.32685 -0.53583,1.19852 1.27951,3.09333 1.39018,1.45104 3.10611,2.41625 3.81318,2.14492 0.78415,-0.30091 1.64728,0.45801 2.21291,1.94572 0.5774,1.51867 1.64363,2.43906 2.82553,2.43906 1.06229,0 1.89821,0.61927 1.89821,1.40625 0,1.2605 1.09829,1.81588 3.01888,1.5266 0.37132,-0.0559 1.1353,0.75813 1.69772,1.80903 0.70674,1.32055 1.58387,1.73259 2.83977,1.33398 1.34272,-0.42617 2.03838,0.005 2.66443,1.65171 1.28495,3.37973 19.77919,11.83699 19.77919,9.0449 0,-1.02674 2.93749,-0.81629 8.735182,0.62583 l 2.64142,0.65702 -1.5836,-3.63702 c -4.872292,-11.19004 -10.157222,-32.66914 -11.159782,-45.35576 -0.34635,-4.38281 -1.07316,-11.55469 -1.61513,-15.9375 -6.71535,-54.30552 1.51868,-138.596294 16.110322,-164.919594 3.40296,-6.13894 3.676,-5.85812 -3.75341,-3.86032 -11.042722,2.96942 -18.874882,6.59702 -18.281292,8.46728 0.32765,1.03231 -0.0643,1.87909 -1.0437,2.25492 -2.19811,0.8435 -2.74163,-0.041 -1.19923,-1.95155 1.81353,-2.24639 -10.33715,4.53388 -18.59112,10.37414 -3.89748,2.75773 -6.68285,5.38823 -6.5625,6.19762 0.12386,0.83304 -0.46207,1.35277 -1.43746,1.27505 -0.96442,-0.0769 -5.10658,3.52479 -9.99837,8.69365 -8.15915,8.62127 -13.10657,15.3438 -11.29221,15.3438 0.49824,0 0.90588,0.63281 0.90588,1.40625 0,0.77343 -0.65771,1.40625 -1.46158,1.40625 -0.86716,0 -1.21535,-0.4766 -0.85614,-1.17188 0.33299,-0.64453 -0.26267,-0.11719 -1.32369,1.17188 -2.30215,2.79696 -7.10779,11.59164 -8.46696,15.49518 -0.80712,2.31806 -0.77714,2.48492 0.17852,0.99333 0.63173,-0.986 1.88688,-2.56803 2.78923,-3.51562 0.90234,-0.94759 1.64062,-2.56664 1.64062,-3.59789 0,-1.03125 0.40864,-1.875 0.90808,-1.875 0.49944,0 0.66524,0.63281 0.36845,1.40625 -0.2968,0.77343 -0.0727,1.40625 0.49817,1.40625 0.57079,0 1.0378,-0.42188 1.0378,-0.9375 0,-0.51563 0.65771,-0.9375 1.46158,-0.9375 0.80387,0 1.20085,0.42187 0.88217,0.9375 -0.31868,0.51562 -0.13762,0.9375 0.40235,0.9375 0.53996,0 1.25308,-1.69685 1.58471,-3.77078 0.33164,-2.07393 1.01464,-4.0252 1.51778,-4.33615 0.52397,-0.32384 0.70884,0.18569 0.43274,1.19265 -1.57131,5.7305 -1.53781,7.12078 0.26125,10.84443 1.89346,3.919 1.89346,3.91931 0.0192,5.91432 -2.14429,2.28251 -2.39862,3.38539 -0.70244,3.04615 0.64453,-0.1289 1.17188,0.39844 1.17188,1.17188 0,0.77343 -0.72541,1.3498 -1.61203,1.28081 -0.88661,-0.069 -1.84477,0.60787 -2.12923,1.50416 -1.11033,3.49833 -2.07759,14.610474 -1.35163,15.527724 0.42179,0.53292 0.42188,1.52718 2e-4,2.20947 -0.51225,0.82883 -0.9711,0.90976 -1.38265,0.24388 -1.05111,-1.70075 -3.24119,-0.1107 -3.066,2.226 0.2139,2.85296 -1.61182,3.47101 -2.00824,0.67983 -0.35096,-2.47115 -4.85667,-3.12346 -4.85667,-0.70312 0,0.77344 -0.40864,1.40625 -0.90808,1.40625 -0.49943,0 -0.66978,-0.62098 -0.37853,-1.37996 0.77685,-2.02438 -1.73356,-7.05754 -3.52009,-7.05754 -3.18032,0 -5.33515,36.90482 -2.22453,38.09847 z m 0.46875,-24.03597 c 0.51562,0 0.9375,0.84375 0.9375,1.875 0,1.03125 -0.42188,1.875 -0.9375,1.875 -0.51563,0 -0.9375,-0.84375 -0.9375,-1.875 0,-1.03125 0.42187,-1.875 0.9375,-1.875 z m 0,8.4375 c 0.51562,0 0.9375,0.86865 0.9375,1.93033 0,1.06168 -0.42188,1.6696 -0.9375,1.35092 -0.51563,-0.31868 -0.9375,-1.18732 -0.9375,-1.93033 0,-0.74301 0.42187,-1.35092 0.9375,-1.35092 z m 0,7.96875 c 0.51562,0.31868 0.9375,1.18732 0.9375,1.93033 0,0.74301 -0.42188,1.35092 -0.9375,1.35092 -0.51563,0 -0.9375,-0.86865 -0.9375,-1.93033 0,-1.06168 0.42187,-1.6696 0.9375,-1.35092 z m 0.9375,-24.84375 c 0.51562,0 0.9375,0.84375 0.9375,1.875 0,1.03125 -0.42188,1.875 -0.9375,1.875 -0.51563,0 -0.9375,-0.84375 -0.9375,-1.875 0,-1.03125 0.42187,-1.875 0.9375,-1.875 z m 1.83406,12.63095 c 0.49311,0.30475 0.6589,1.1734 0.36845,1.93033 -0.74366,1.93791 -1.26501,1.70955 -1.26501,-0.55411 0,-1.06168 0.40345,-1.68099 0.89656,-1.37622 z m -0.52811,16.43155 c 0.88934,0 1.33755,2.80629 0.52811,3.30655 -0.49311,0.30477 -0.89656,-0.31454 -0.89656,-1.37622 0,-1.06168 0.16581,-1.93033 0.36845,-1.93033 z m 0.56905,7.5 c 0.51562,0 0.9375,0.63281 0.9375,1.40625 0,0.77344 -0.42188,1.40625 -0.9375,1.40625 -0.51563,0 -0.9375,-0.63281 -0.9375,-1.40625 0,-0.77344 0.42187,-1.40625 0.9375,-1.40625 z m 1.875,-28.59375 c 0.51562,-0.31868 0.9375,0.28924 0.9375,1.35092 0,1.06168 -0.42188,1.93033 -0.9375,1.93033 -0.51563,0 -0.9375,-0.60791 -0.9375,-1.35092 0,-0.743 0.42187,-1.61165 0.9375,-1.93033 z m 0,8.90625 c 0.51562,0 0.9375,0.63281 0.9375,1.40625 0,0.77344 -0.42188,1.40625 -0.9375,1.40625 -0.51563,0 -0.9375,-0.63281 -0.9375,-1.40625 0,-0.77344 0.42187,-1.40625 0.9375,-1.40625 z m 0,7.5 c 0.51562,0 0.9375,0.84375 0.9375,1.875 0,1.03125 -0.42188,1.875 -0.9375,1.875 -0.51563,0 -0.9375,-0.84375 -0.9375,-1.875 0,-1.03125 0.42187,-1.875 0.9375,-1.875 z m -0.0114,9.39344 c 0.71928,-1.16382 0.94444,-1.1209 1.48302,0.28264 0.75062,1.95608 -0.18721,3.23333 -1.44822,1.97233 -0.53252,-0.53252 -0.54633,-1.42732 -0.0348,-2.25497 z m 0.84864,6.54406 c 1.1421,0 2.11866,2.75959 1.3924,3.93469 -0.36947,0.59782 -0.88935,0.47895 -1.39493,-0.31898 -1.05588,-1.66639 -1.05451,-3.61571 0.003,-3.61571 z m 1.97526,10.3125 c 1.17461,1.81759 1.17461,2.8125 0,2.8125 -0.51563,0 -0.93104,-0.94922 -0.92315,-2.10938 0.0116,-1.70572 0.18827,-1.84027 0.92315,-0.70312 z m 0.83927,-46.34554 c 0.46159,-0.28528 1.07598,0.0982 1.3653,0.85215 0.56218,1.46501 -0.6068,2.71617 -1.60506,1.71791 -0.84751,-0.84751 -0.74351,-1.96237 0.23976,-2.57006 z m 0.24307,8.11257 c 1.45978,0.48659 1.71543,2.58399 0.32391,2.65749 -0.51563,0.0273 -1.08326,-0.65416 -1.26141,-1.51422 -0.20249,-0.97754 0.14895,-1.40612 0.9375,-1.14327 z m 0.0309,8.44782 c 1.73833,0.57944 2.02665,2.59765 0.37109,2.59765 -0.8164,0 -1.48437,-0.66797 -1.48437,-1.48437 0,-0.81641 0.50097,-1.31739 1.11328,-1.11328 z m -0.17578,8.22265 c 0.51562,0 0.9375,0.86865 0.9375,1.93033 0,1.06168 -0.42188,1.6696 -0.9375,1.35092 -0.51563,-0.31868 -0.9375,-1.18732 -0.9375,-1.93033 0,-0.74301 0.42187,-1.35092 0.9375,-1.35092 z m -0.33799,8.15048 c 0.87491,-0.87491 2.21299,0.18237 2.21299,1.7486 0,0.74301 -0.63281,1.35092 -1.40625,1.35092 -1.41209,0 -1.9272,-1.97905 -0.80674,-3.09952 z m 1.6755,9.66202 c 0.86966,0 1.47499,0.80156 1.47499,1.95312 0,2.28474 -2.19072,1.96179 -2.64686,-0.39019 -0.17942,-0.92508 0.29884,-1.56293 1.17187,-1.56293 z m -0.40001,10.78125 c 0.51562,0.31868 0.9375,1.18732 0.9375,1.93033 0,0.74301 -0.42188,1.35092 -0.9375,1.35092 -0.51563,0 -0.9375,-0.86865 -0.9375,-1.93033 0,-1.06168 0.42187,-1.6696 0.9375,-1.35092 z m 0.9375,8.4375 c 0.51562,0.31868 0.9375,1.21222 0.9375,1.98565 0,0.77344 -0.42188,1.14553 -0.9375,0.82685 -0.51563,-0.31868 -0.9375,-1.21222 -0.9375,-1.98565 0,-0.77344 0.42187,-1.14553 0.9375,-0.82685 z m 0.93754,-11.71875 c 0.51562,0 0.9375,0.63281 0.9375,1.40625 0,0.77344 -0.42188,1.40625 -0.9375,1.40625 -0.51563,0 -0.9375,-0.63281 -0.9375,-1.40625 0,-0.77344 0.42187,-1.40625 0.9375,-1.40625 z m 1.32813,-45.9375 c 0.8164,0 1.48437,0.66797 1.48437,1.48437 0,1.65556 -2.01821,1.36724 -2.59765,-0.37109 -0.20411,-0.61231 0.29687,-1.11328 1.11328,-1.11328 z m -0.24579,8.64203 c 1.45978,0.48659 1.71543,2.58399 0.32391,2.65749 -0.51563,0.0273 -1.08326,-0.65416 -1.26141,-1.51422 -0.20249,-0.97754 0.14895,-1.40612 0.9375,-1.14327 z m 0.32391,8.23297 c 0.77344,0 1.40625,0.42187 1.40625,0.9375 0,0.51562 -0.63281,0.9375 -1.40625,0.9375 -0.77344,0 -1.40625,-0.42188 -1.40625,-0.9375 0,-0.51563 0.63281,-0.9375 1.40625,-0.9375 z m -0.70161,8.19165 c 0.20612,-0.90866 0.76471,-1.41111 1.24131,-1.11655 1.13631,0.70228 1.12331,4.1749 -0.0157,4.1749 -1.22377,0 -1.668,-1.10844 -1.22568,-3.05835 z m 0.23286,29.30835 c 0.51562,0 0.9375,0.65771 0.9375,1.46158 0,0.80387 -0.42188,1.20085 -0.9375,0.88217 -0.51563,-0.31868 -0.9375,-0.97639 -0.9375,-1.46158 0,-0.4852 0.42187,-0.88217 0.9375,-0.88217 z m 1.08234,-21.35797 c 1.45978,0.48659 1.71543,2.58399 0.32391,2.65749 -0.51563,0.0273 -1.08326,-0.65416 -1.26141,-1.51422 -0.20249,-0.97754 0.14895,-1.40612 0.9375,-1.14327 z m 1.02703,9.4044 c 1.77393,0.59066 2.02613,3.51607 0.30312,3.51607 -0.86966,0 -1.47499,-0.80156 -1.47499,-1.95312 0,-1.14561 0.48452,-1.79181 1.17187,-1.56295 z m 0.84797,7.47016 c 0.69377,0.23102 1.40717,1.17194 1.58532,2.09094 0.20718,1.06877 -0.13066,1.51954 -0.9375,1.25088 -0.69377,-0.23102 -1.40717,-1.17194 -1.58532,-2.09094 -0.20718,-1.06877 0.13066,-1.51955 0.9375,-1.25088 z m 0.46063,-53.93456 c 1.22259,-1.22259 2.20703,-0.6389 2.20703,1.30859 0,1.09102 -0.49141,1.78932 -1.11328,1.58203 -1.37001,-0.45666 -1.96232,-2.02205 -1.09375,-2.89062 z m 1.44531,8.00782 c 1.73589,0.57862 1.9327,2.30745 0.33259,2.92147 -1.01334,0.38886 -1.44587,-0.0206 -1.44587,-1.36887 0,-1.06829 0.49504,-1.75868 1.11328,-1.5526 z m 0.29297,8.22265 c 0.96559,0 1.4254,0.61444 1.22778,1.64062 -0.38056,1.9761 -2.04439,1.8515 -2.46839,-0.18485 -0.17686,-0.84936 0.33993,-1.45577 1.24061,-1.45577 z m 0,7.5 c 0.77344,0 1.40625,0.63281 1.40625,1.40625 0,0.77344 -0.63281,1.40625 -1.40625,1.40625 -0.77344,0 -1.40625,-0.63281 -1.40625,-1.40625 0,-0.77344 0.63281,-1.40625 1.40625,-1.40625 z m -0.56905,8.4375 c 1.05378,0 2.03675,2.43855 1.2857,3.18959 -1.12852,1.12853 -2.1229,0.51278 -2.1229,-1.31459 0,-1.03125 0.37674,-1.875 0.8372,-1.875 z m 1.10017,-79.257304 c 0.54993,-0.33988 1.22499,-0.39284 1.50013,-0.1177 0.67155,0.67154 -0.51171,2.5 -1.61783,2.5 -1.1981,0 -1.11813,-1.61851 0.1177,-2.3823 z m 0.40638,88.632304 c 0.77344,0 1.40625,0.60791 1.40625,1.35092 0,1.98338 -1.58692,2.62703 -2.24552,0.91077 -0.80181,-2.08949 -0.73791,-2.26169 0.83927,-2.26169 z m 0.9375,9.375 c 0.77344,0 1.40625,0.63281 1.40625,1.40625 0,0.77344 -0.63281,1.40625 -1.40625,1.40625 -0.77344,0 -1.40625,-0.63281 -1.40625,-1.40625 0,-0.77344 0.63281,-1.40625 1.40625,-1.40625 z m -0.40638,7.9302 c 1.39608,-0.86282 2.15512,0.13756 1.46632,1.93253 -0.31787,0.82836 -1.0028,1.24353 -1.52207,0.92262 -1.22957,-0.75992 -1.20385,-2.07667 0.0558,-2.85515 z m 1.91745,-71.27623 c 1.51409,-0.93576 2.80147,1.63465 1.56494,3.12459 -0.8452,1.0184 -1.17729,1.02417 -1.80702,0.0314 -1.04707,-1.65063 -0.99002,-2.39455 0.24208,-3.15603 z m -0.39183,8.63304 c 1.0558,-1.05579 2.16201,-0.64302 2.16201,0.80674 0,0.77344 -0.39697,1.40625 -0.88216,1.40625 -1.18217,0 -2.02885,-1.46399 -1.27985,-2.21299 z m -0.0579,6.6204 c 1.2819,-1.2819 2.34614,-0.63076 2.05073,1.25472 -0.16476,1.05168 -0.72145,1.91772 -1.23708,1.92452 -1.14103,0.0151 -1.72524,-2.26766 -0.81365,-3.17924 z m 0.7552,8.86243 c 0.86006,0.17815 1.54146,0.74578 1.51422,1.26141 -0.0735,1.39152 -2.17089,1.13587 -2.65748,-0.32391 -0.26286,-0.78855 0.16572,-1.13999 1.14326,-0.9375 z m -0.42169,16.7486 c 0.71928,-1.16382 0.94444,-1.1209 1.48303,0.28264 0.75061,1.95608 -0.18722,3.23333 -1.44823,1.97233 -0.53251,-0.53252 -0.54632,-1.42732 -0.0348,-2.25497 z m 1.41769,-47.830944 c 0.77344,0 1.40625,0.632814 1.40625,1.406254 0,0.77344 -0.63281,1.40625 -1.40625,1.40625 -0.77343,0 -1.40625,-0.63281 -1.40625,-1.40625 0,-0.77344 0.63282,-1.406254 1.40625,-1.406254 z m -0.23437,38.671874 c 0.64453,0.21485 1.17187,0.95313 1.17187,1.64063 0,0.6875 -0.52734,1.42578 -1.17187,1.64062 -0.69712,0.23237 -1.17188,-0.43229 -1.17188,-1.64062 0,-1.20833 0.47476,-1.87299 1.17188,-1.64063 z m 0,16.87456 c 1.77393,0.59066 2.02612,3.51607 0.30311,3.51607 -0.86965,0 -1.47499,-0.80156 -1.47499,-1.95312 0,-1.14561 0.48452,-1.79181 1.17188,-1.56295 z m 0.84797,9.34516 c 0.69377,0.23102 1.40717,1.17194 1.58531,2.09094 0.20719,1.06877 -0.13066,1.51954 -0.9375,1.25088 -0.69377,-0.23102 -1.40717,-1.17194 -1.58531,-2.09094 -0.20719,-1.06877 0.13066,-1.51955 0.9375,-1.25088 z m -0.0547,8.64646 c 1.31534,-0.81292 2.18011,2.37922 0.97186,3.58747 -0.58409,0.58409 -1.09426,0.87214 -1.13371,0.6401 -0.0395,-0.23203 -0.21281,-1.15847 -0.38525,-2.05877 -0.17244,-0.9003 0.0738,-1.87626 0.5471,-2.1688 z m 0.96533,-97.913054 c 0.82572,-4.2444 1.41582,-7.36957 1.63743,-8.67188 0.0658,-0.38672 0.54152,-0.70312 1.05714,-0.70312 1.25472,0 1.20255,3.47553 -0.0639,4.25825 -0.55078,0.3404 -0.75444,1.26252 -0.45257,2.04915 0.30185,0.78664 0.0532,2.02747 -0.55261,2.75741 -0.78836,0.94991 -0.81377,1.61482 -0.0894,2.33916 1.27542,1.27539 0.44583,3.59603 -1.28549,3.59603 -0.71827,0 -1.25315,-0.31641 -1.1886,-0.70313 0.0645,-0.38672 0.48667,-2.60156 0.93808,-4.92187 z m -0.11802,125.625004 c 0.51563,0 0.9375,0.42187 0.9375,0.9375 0,0.51562 -0.42187,0.9375 -0.9375,0.9375 -0.51562,0 -0.9375,-0.42188 -0.9375,-0.9375 0,-0.51563 0.42188,-0.9375 0.9375,-0.9375 z m 0.99988,-141.132304 c 0.54992,-0.33988 1.22498,-0.39284 1.50013,-0.1177 0.67154,0.67154 -0.51172,2.5 -1.61784,2.5 -1.19809,0 -1.11812,-1.61851 0.11771,-2.3823 z m 0.62722,44.192714 c 1.00596,-1.00597 2.1229,-0.59004 2.1229,0.79051 0,0.74301 -0.37766,1.58434 -0.83926,1.86962 -0.96508,0.59644 -2.12874,-1.81504 -1.28364,-2.66013 z m 0.39275,7.14412 c 1.45978,0.4866 1.71543,2.58399 0.3239,2.65749 -0.51562,0.0272 -1.08326,-0.65416 -1.2614,-1.51422 -0.20249,-0.97754 0.14895,-1.40612 0.9375,-1.14327 z m 0.3239,8.23297 c 0.85938,0 1.41133,0.45352 1.22657,1.00781 -0.18477,0.5543 -0.73672,1.00781 -1.22657,1.00781 -0.48984,0 -1.04179,-0.45351 -1.22655,-1.00781 -0.18478,-0.55429 0.36718,-1.00781 1.22655,-1.00781 z m -0.46875,7.5 c 0.51563,0 0.9375,0.63281 0.9375,1.40625 0,0.77344 -0.42187,1.40625 -0.9375,1.40625 -0.51562,0 -0.9375,-0.63281 -0.9375,-1.40625 0,-0.77344 0.42188,-1.40625 0.9375,-1.40625 z m -0.31249,8.125 c 1.07871,-1.07872 2.18749,-0.68272 2.18749,0.78125 0,0.77344 -0.63281,1.40625 -1.40625,1.40625 -1.46397,0 -1.85997,-1.10878 -0.78124,-2.1875 z m 0.54687,8.04687 c 0.64453,0.21485 1.17187,0.95313 1.17187,1.64063 0,0.6875 -0.52734,1.42578 -1.17187,1.64062 -0.69712,0.23237 -1.17188,-0.43229 -1.17188,-1.64062 0,-1.20833 0.47476,-1.87299 1.17188,-1.64063 z m 0.37109,-54.902344 c 1.2226,-1.22259 2.20703,-0.6389 2.20703,1.30859 0,1.09101 -0.4914,1.78932 -1.11328,1.58203 -1.37,-0.45667 -1.96232,-2.02205 -1.09375,-2.89062 z m 0.26725,7.36426 c 0.48,-0.29666 1.13771,-0.11062 1.46158,0.41342 0.69145,1.11878 -0.18615,2.82779 -1.45213,2.82779 -1.14075,0 -1.14814,-2.53746 -0.01,-3.24121 z m 0.0648,56.209964 c 0.51563,0.31868 0.9375,1.18732 0.9375,1.93033 0,0.74301 -0.42187,1.35092 -0.9375,1.35092 -0.51562,0 -0.9375,-0.86865 -0.9375,-1.93033 0,-1.06168 0.42188,-1.6696 0.9375,-1.35092 z m 0,7.96875 c 0.51563,0 0.9375,0.86865 0.9375,1.93033 0,1.06168 -0.42187,1.6696 -0.9375,1.35092 -0.51562,-0.31868 -0.9375,-1.18732 -0.9375,-1.93033 0,-0.74301 0.42188,-1.35092 0.9375,-1.35092 z m 0.46875,9.375 c 0.96559,0 1.42541,0.61444 1.22778,1.64062 -0.38056,1.9761 -2.04438,1.8515 -2.46839,-0.18485 -0.17686,-0.84936 0.33993,-1.45577 1.24061,-1.45577 z m 0.15623,-108.125004 c 1.07872,-1.07872 2.1875,-0.68273 2.1875,0.78125 0,0.77343 -0.63281,1.40625 -1.40625,1.40625 -1.46397,0 -1.85997,-1.10878 -0.78125,-2.1875 z m 0.85938,117.500004 c 1.65556,0 1.36724,2.01821 -0.37109,2.59765 -0.61231,0.20411 -1.11329,-0.29687 -1.11329,-1.11328 0,-0.8164 0.66797,-1.48437 1.48438,-1.48437 z m 0.7452,-108.943974 c 1.12067,-5.70122 2.67845,-8.28707 3.8502,-6.39114 0.36652,0.59304 0.008,1.80551 -0.79617,2.69438 -0.87251,0.96411 -1.24367,2.45318 -0.91999,3.69092 0.33009,1.26229 0.11598,2.07481 -0.54675,2.07481 -0.74543,0 -0.88697,1.07868 -0.44834,3.41677 0.43107,2.2978 0.3177,3.21697 -0.34619,2.80666 -0.54296,-0.33556 -1.20086,-0.0801 -1.462,0.5676 -0.82751,2.05256 -0.42292,-3.30382 0.66924,-8.86 z m -0.35458,12.38147 c 0.51563,0 0.9375,0.63281 0.9375,1.40625 0,0.77343 -0.42187,1.40625 -0.9375,1.40625 -0.51562,0 -0.9375,-0.63282 -0.9375,-1.40625 0,-0.77344 0.42188,-1.40625 0.9375,-1.40625 z M 43.655778,187.477 c 1.20163,1.25944 1.32705,1.8358 0.46875,2.15402 -1.39631,0.51768 -1.59384,5.90322 -0.21651,5.90322 0.55602,0 0.70444,0.99971 0.35509,2.39167 -0.43277,1.72429 -0.12063,2.74238 1.11862,3.64855 1.50642,1.10151 1.55381,1.4558 0.38342,2.86603 -1.1705,1.41037 -1.12265,1.76477 0.38735,2.86891 1.16782,0.85393 1.49765,1.80279 1.02383,2.94543 -1.57196,3.79085 -5.14421,-9.95796 -5.15575,-19.84336 -0.005,-4.4624 0.0621,-4.58321 1.6352,-2.93447 z m -0.0822,-132.333394 c 0.46207,-1.14512 3.12911,-1.69189 3.12911,-0.64149 0,1.47336 -2.08314,4.13913 -2.85953,3.6593 -0.95759,-0.59183 -1.01032,-1.18206 -0.26958,-3.01781 z m 0.32324,68.667784 c 0.51926,-0.32091 1.20419,0.0943 1.52206,0.92262 0.6888,1.79497 -0.0702,2.79535 -1.46631,1.93253 -1.25961,-0.77848 -1.28532,-2.09523 -0.0557,-2.85515 z m -0.007,15.9416 c 1.10613,-0.68363 2.8125,0.20313 2.8125,1.46158 0,0.48519 -0.84375,0.88217 -1.875,0.88217 -1.97727,0 -2.52285,-1.36395 -0.9375,-2.34375 z m 0,69.84375 c 0.5156,0 0.93747,0.63281 0.93747,1.40625 0,0.77344 -0.42187,1.40625 -0.9375,1.40625 -0.51562,0 -0.9375,-0.63281 -0.9375,-1.40625 0,-0.77344 0.42188,-1.40625 0.9375,-1.40625 z m 1.47533,-102.1875 c 0.87303,0 1.35128,0.63785 1.17187,1.56293 -0.45614,2.35198 -2.64687,2.67493 -2.64687,0.39019 0,-1.15156 0.60534,-1.95312 1.475,-1.95312 z m -0.87548,8.15048 c 0.97742,-0.97742 2.21298,0.26057 2.21298,2.21735 0,1.00082 -0.63281,1.81967 -1.40625,1.81967 -1.39054,0 -1.96568,-2.87807 -0.80673,-4.03702 z m 0.22319,15.28702 c 1.84586,0 2.98608,2.53413 1.64209,3.64954 -1.0185,0.84528 -1.43642,0.75201 -1.88656,-0.42103 -0.80647,-2.10163 -0.72114,-3.22851 0.24447,-3.22851 z m 0.12142,16.40215 c 1.14483,-0.70754 2.27777,1.86447 1.42737,3.24045 -0.33393,0.54032 -1.00413,0.9824 -1.48932,0.9824 -1.18233,0 -1.1312,-3.48544 0.0619,-4.22285 z m 0.13822,9.11444 c 0.69377,0.23102 1.40716,1.17194 1.58531,2.09094 0.20719,1.06877 -0.13066,1.51955 -0.9375,1.25088 -0.69377,-0.23102 -1.40717,-1.17194 -1.58531,-2.09094 -0.20719,-1.06877 0.13066,-1.51955 0.9375,-1.25088 z m 0.048,8.58299 c 1.0483,-0.64789 2.75408,1.47235 2.31146,2.87308 -0.15275,0.48339 -0.72499,1.02799 -1.27164,1.21021 -1.31258,0.43753 -2.27018,-3.32289 -1.03982,-4.0833 z m 0.82635,-73.056324 c 0.56055,-0.34644 1.45192,-0.19716 1.98081,0.33174 1.18278,1.18278 0.18387,3 -1.64907,3 -1.5784,0 -1.81863,-2.41279 -0.33174,-3.33174 z m 0.15269,7.31567 c 1.77393,0.59066 2.02612,3.516074 0.30312,3.516074 -0.86966,0 -1.475,-0.80156 -1.475,-1.95312 0,-1.145614 0.48452,-1.791814 1.17188,-1.562954 z m -0.23438,75.234824 c 1.10614,-0.68363 2.8125,0.20313 2.8125,1.46158 0,0.48519 -0.84375,0.88217 -1.875,0.88217 -1.97726,0 -2.52284,-1.36395 -0.9375,-2.34375 z m 1.01919,-89.112994 c 0.56055,-0.34644 1.38674,-0.26234 1.83596,0.18689 1.10877,1.10876 -0.50523,3.54902 -1.81283,2.74088 -1.32509,-0.81895 -1.33534,-2.11678 -0.0231,-2.92777 z m -0.41967,96.794724 c 0.87491,-0.87491 2.21298,0.18237 2.21298,1.7486 0,0.74301 -0.63281,1.35092 -1.40625,1.35092 -1.41209,0 -1.92719,-1.97905 -0.80673,-3.09952 z m -0.24556,32.16202 c 0.19468,0 0.87915,0.63281 1.52104,1.40625 0.95585,1.15173 0.89179,1.40625 -0.35395,1.40625 -0.83658,0 -1.52105,-0.63281 -1.52105,-1.40625 0,-0.77344 0.15929,-1.40625 0.35396,-1.40625 z m 1.96036,-157.500004 c 0.83868,0 1.16591,0.54964 0.8372,1.40625 -0.2968,0.77343 -0.91637,1.40625 -1.37683,1.40625 -0.46046,0 -0.8372,-0.63282 -0.8372,-1.40625 0,-0.77344 0.61958,-1.40625 1.37683,-1.40625 z m -0.42353,11.47421 c 0.81127,-5.56205 3.25312,-9.98443 5.11786,-9.26886 0.7249,0.27817 1.46275,-0.35874 1.76803,-1.52616 0.28817,-1.10196 0.7858,-1.74171 1.10584,-1.42167 0.32004,0.32004 0.1513,1.38646 -0.37498,2.36982 -0.52628,0.98336 -1.46114,4.71089 -2.07748,8.28342 -1.11812,6.48108 -2.16715,8.26472 -4.38319,7.45256 -0.74169,-0.27182 -1.17188,0.4404 -1.17188,1.94018 0,1.34104 0.40695,2.11815 0.9375,1.79025 0.51563,-0.31868 0.9375,0.28924 0.9375,1.35092 0,2.58447 -1.5137,2.46247 -2.2216,-0.17905 -0.66343,-2.47556 -0.60746,-4.14206 0.3624,-10.79141 z m 2.32795,3.21329 c 0.77344,0 1.40625,-0.77344 1.40625,-1.71875 0,-0.94532 -0.63281,-1.71875 -1.40625,-1.71875 -0.77343,0 -1.40625,0.77343 -1.40625,1.71875 0,0.94531 0.63282,1.71875 1.40625,1.71875 z m 0.9375,-5.91098 c 0.95653,0.36705 1.40625,-0.0506 1.40625,-1.30595 0,-1.84223 -1.00505,-2.40302 -2.1875,-1.22057 -1.01248,1.01248 -0.72277,1.94937 0.78125,2.52652 z m -3.1364,124.553014 c 1.45978,0.48659 1.71543,2.58399 0.3239,2.65749 -0.51562,0.0273 -1.08326,-0.65416 -1.2614,-1.51422 -0.20249,-0.97754 0.14894,-1.40612 0.9375,-1.14327 z m 1.2614,7.89394 c 1.64228,0.63021 1.82884,2.35395 0.40849,3.7743 -0.70536,0.70536 -0.4993,1.49857 0.70312,2.70662 1.64545,1.65315 1.71025,1.64513 1.98795,-0.24595 0.39366,-2.68078 3.93169,-3.59898 3.93169,-1.02037 0,1.29265 -0.4432,1.71746 -1.40625,1.3479 -0.95652,-0.36705 -1.40625,0.0506 -1.40625,1.30595 0,1.01507 -0.3164,1.79562 -0.70312,1.73456 -2.07352,-0.3274 -2.8226,0.29741 -2.38102,1.98602 0.60361,2.30819 3.04972,2.48869 3.17618,0.23437 0.0506,-0.90234 0.62602,0.25782 1.27866,2.57813 0.94823,3.37123 1.33386,3.87015 1.91957,2.48351 0.46384,-1.09812 0.29199,-2.00778 -0.46804,-2.4775 -0.8016,-0.49541 -0.97852,-1.62869 -0.532,-3.40776 0.68866,-2.74387 2.7495,-1.17406 2.30286,1.75417 -0.30751,2.01604 1.23543,9.1627 2.09256,9.69244 0.44789,0.27681 0.81435,1.2705 0.81435,2.20817 0,0.93769 0.63282,2.23007 1.40625,2.87197 1.82948,1.51833 1.79353,2.8125 -0.0781,2.8125 -0.8164,0 -1.30128,-0.52734 -1.07749,-1.17188 0.22378,-0.64453 -0.37387,-2.17799 -1.32813,-3.40768 -0.95425,-1.22969 -1.735,-3.23359 -1.735,-4.45312 0,-1.21953 -0.47108,-2.21732 -1.04685,-2.21732 -0.57576,0 -0.84437,0.77422 -0.59692,1.72049 0.35814,1.36954 0.0153,1.63742 -1.68065,1.31321 -1.17181,-0.224 -2.34844,-1.24047 -2.61475,-2.25882 -0.2663,-1.01834 -1.35924,-2.08036 -2.42876,-2.36004 -1.06951,-0.27969 -1.94457,-0.92633 -1.94457,-1.43698 0,-0.51066 0.63281,-0.68564 1.40625,-0.38883 0.77343,0.29679 1.40124,0.44739 1.39512,0.33468 -0.006,-0.11273 -0.63393,-2.52527 -1.39512,-5.36121 -1.86396,-6.94439 -1.86396,-11.36679 0,-10.65153 z m 4.31906,19.08903 c 0.46046,0 0.83719,-0.63281 0.83719,-1.40625 0,-0.77344 -0.61957,-1.40625 -1.37682,-1.40625 -0.83868,0 -1.16591,0.54965 -0.8372,1.40625 0.2968,0.77344 0.91637,1.40625 1.37683,1.40625 z M 49.954478,50.221736 c 0.83868,0 1.16591,0.54964 0.8372,1.40625 -0.2968,0.77343 -0.91637,1.40625 -1.37683,1.40625 -0.46046,0 -0.8372,-0.63282 -0.8372,-1.40625 0,-0.77344 0.61958,-1.40625 1.37683,-1.40625 z m -0.45072,61.893444 c 0.71928,-1.16382 0.94444,-1.1209 1.48303,0.28264 0.75062,1.95608 -0.18723,3.23333 -1.44822,1.97233 -0.53252,-0.53252 -0.54633,-1.42732 -0.0348,-2.25497 z m 0.15624,6.74815 c 0.69377,0.23102 1.40716,1.17194 1.58531,2.09094 0.20719,1.06877 -0.13066,1.51955 -0.9375,1.25088 -0.69377,-0.23102 -1.40717,-1.17194 -1.58531,-2.09094 -0.20719,-1.06877 0.13066,-1.51954 0.9375,-1.25088 z m 0.36353,6.97209 c 1.6001,0.61402 1.40329,2.34285 -0.33259,2.92147 -0.61825,0.20608 -1.11329,-0.48431 -1.11329,-1.5526 0,-1.34823 0.43254,-1.75773 1.44588,-1.36887 z m -0.274,9.93319 c 0.64453,0.21485 1.17187,0.95313 1.17187,1.64063 0,0.6875 -0.52734,1.42578 -1.17187,1.64062 -0.69712,0.23237 -1.17188,-0.43229 -1.17188,-1.64062 0,-1.20833 0.47476,-1.87299 1.17188,-1.64063 z m -0.56641,8.84766 c 1.2226,-1.22259 2.20703,-0.6389 2.20703,1.30859 0,1.09102 -0.4914,1.78932 -1.11328,1.58203 -1.37001,-0.45666 -1.96231,-2.02205 -1.09375,-2.89062 z m -0.006,7.50595 c 0.99975,-0.9997 2.21303,0.27891 2.21303,2.33214 0,1.61323 -0.23352,1.74065 -1.40625,0.76738 -1.5185,-1.26024 -1.75135,-2.15489 -0.80673,-3.09952 z m 0.80678,8.72452 c 0.77344,0 1.40625,0.63281 1.40625,1.40625 0,0.77344 -0.63281,1.40625 -1.40625,1.40625 -0.77343,0 -1.40625,-0.63281 -1.40625,-1.40625 0,-0.77344 0.63282,-1.40625 1.40625,-1.40625 z m 0.9375,-57.1875 c 0.77344,0 1.40625,0.60791 1.40625,1.35092 0,1.98338 -1.58692,2.62703 -2.24551,0.91077 -0.80181,-2.08949 -0.73791,-2.26169 0.83926,-2.26169 z m 0.46875,-8.437504 c 0.51563,0 0.9375,0.84375 0.9375,1.875 0,1.03125 -0.42187,1.875 -0.9375,1.875 -0.51562,0 -0.9375,-0.84375 -0.9375,-1.875 0,-1.03125 0.42188,-1.875 0.9375,-1.875 z m 0,74.062504 c 0.51563,0 0.9375,0.63281 0.9375,1.40625 0,0.77344 -0.42187,1.40625 -0.9375,1.40625 -0.51562,0 -0.9375,-0.63281 -0.9375,-1.40625 0,-0.77344 0.42188,-1.40625 0.9375,-1.40625 z m 0.17579,8.65235 c 1.73833,0.57944 2.02665,2.59765 0.37109,2.59765 -0.81641,0 -1.48438,-0.66797 -1.48438,-1.48437 0,-0.81641 0.50098,-1.31739 1.11329,-1.11328 z m 0.76171,-89.277354 c 0.51563,0 0.9375,0.63281 0.9375,1.40625 0,0.77343 -0.42187,1.40625 -0.9375,1.40625 -0.51562,0 -0.9375,-0.63282 -0.9375,-1.40625 0,-0.77344 0.42188,-1.40625 0.9375,-1.40625 z m 0.40001,97.500004 c 0.86966,0 1.47499,0.80156 1.47499,1.95312 0,2.28474 -2.19072,1.96179 -2.64686,-0.39019 -0.17941,-0.92508 0.29884,-1.56293 1.17187,-1.56293 z m -0.71251,9.0625 c 1.07872,-1.07872 2.1875,-0.68272 2.1875,0.78125 0,0.77344 -0.39253,1.40625 -0.87229,1.40625 -0.47976,0 -1.05512,0.94922 -1.27858,2.10937 -0.31039,1.6115 -0.43642,1.4271 -0.53395,-0.78124 -0.0702,-1.58985 0.15357,-3.17188 0.49732,-3.51563 z m 1.18523,-143.553724 c 0.47999,-0.29665 1.1377,-0.11061 1.46157,0.41342 0.69145,1.11879 -0.18615,2.8278 -1.45212,2.8278 -1.14076,0 -1.14816,-2.53746 -0.01,-3.24122 z m 0.5718,22.18863 c 1.15852,-1.02375 1.36797,-0.83235 1.36797,1.25 0,1.48138 -0.44255,2.31132 -1.11328,2.08774 -1.67768,-0.55922 -1.78642,-1.98421 -0.25469,-3.33774 z m -0.50703,6.36509 c 0.51563,0 0.9375,0.84375 0.9375,1.875 0,1.03125 -0.42187,1.875 -0.9375,1.875 -0.51562,0 -0.9375,-0.84375 -0.9375,-1.875 0,-1.03125 0.42188,-1.875 0.9375,-1.875 z m 0.67339,-33.51563 c 0.66363,-1.85004 2.13911,-1.36505 2.13911,0.70313 0,1.03125 -0.39697,1.875 -0.88217,1.875 -1.20003,0 -1.76561,-1.16007 -1.25694,-2.57813 z m -0.0679,67.910164 c 1.2226,-1.22259 2.20703,-0.6389 2.20703,1.30859 0,1.09102 -0.4914,1.78932 -1.11328,1.58203 -1.37001,-0.45666 -1.96231,-2.02205 -1.09375,-2.89062 z m 0.0195,7.48047 c 0.34375,-0.34375 1.1875,-0.625 1.875,-0.625 1.65951,0 1.60822,2.47444 -0.0646,3.11635 -1.97395,0.75747 -3.27239,-1.02935 -1.8104,-2.49135 z m 0.54688,8.04643 c 1.77393,0.59066 2.02612,3.51607 0.30312,3.51607 -0.86966,0 -1.475,-0.80156 -1.475,-1.95312 0,-1.14561 0.48452,-1.79181 1.17188,-1.56295 z m -0.22775,8.66822 c 1.15175,-0.71181 2.27542,1.86828 1.41792,3.25574 -0.33913,0.54873 -1.00933,0.75498 -1.48932,0.45832 -1.15777,-0.71554 -1.11421,-2.98131 0.0714,-3.71406 z m -0.31913,10.47285 c 1.18856,-1.18855 2.1875,-0.61773 2.1875,1.25 0,1.04167 -0.625,1.875 -1.40625,1.875 -1.42726,0 -1.92305,-1.98319 -0.78125,-3.125 z m 0.54688,7.10893 c 1.77393,0.59066 2.02612,3.51607 0.30312,3.51607 -0.86966,0 -1.475,-0.80156 -1.475,-1.95312 0,-1.14561 0.48452,-1.79181 1.17188,-1.56295 z m 0.80746,-88.358934 c 0.67752,0 0.83228,-1.11703 0.44256,-3.1944 -0.36704,-1.95652 -0.20969,-3.32426 0.40607,-3.52951 0.55294,-0.18431 1.06508,-1.38355 1.13808,-2.66498 0.1547,-2.71531 2.59645,-6.99738 2.59645,-4.55336 0,0.81122 -0.37635,2.69806 -0.83635,4.19298 -0.46,1.49491 -1.36763,5.12922 -2.01696,8.07624 -0.64933,2.94702 -1.5386,5.13696 -1.97614,4.86654 -1.16322,-0.71891 -0.97238,-3.19351 0.24629,-3.19351 z m 0.27202,39.451684 c 0.66133,-0.54885 1.43412,-0.76621 1.71731,-0.48301 0.70485,0.70485 -0.26275,4.15633 -1.16521,4.15633 -1.35914,0 -1.76051,-2.67043 -0.5521,-3.67332 z m -0.31398,58.47852 c 1.39608,-0.86282 2.15511,0.13756 1.46631,1.93253 -0.31787,0.82836 -1.0028,1.24353 -1.52206,0.92262 -1.22957,-0.75992 -1.20386,-2.07667 0.0557,-2.85515 z m 0.4265,57.15761 c 1.45759,1.92664 1.22592,3.00324 -0.4265,1.98199 -0.54993,-0.33988 -0.98646,-1.33134 -0.97006,-2.20326 0.0262,-1.39186 0.19659,-1.36486 1.39656,0.22127 z m 0.38385,-123.641524 c 0.47999,-0.29666 1.1377,-0.11062 1.46157,0.41342 0.69145,1.118784 -0.18615,2.827794 -1.45212,2.827794 -1.14076,0 -1.14816,-2.53746 -0.01,-3.241214 z m -0.26726,75.135744 c 1.2226,-1.22259 2.20703,-0.6389 2.20703,1.30859 0,1.09102 -0.4914,1.78932 -1.11328,1.58203 -1.37001,-0.45666 -1.96231,-2.02205 -1.09375,-2.89062 z m 0.95703,-90.019534 c 1.07872,-1.07872 2.1875,-0.68273 2.1875,0.78125 0,0.77343 -0.63281,1.40625 -1.40625,1.40625 -1.46397,0 -1.85996,-1.10878 -0.78125,-2.1875 z m 0.54688,7.10937 c 0.64453,0.21485 1.17187,0.95313 1.17187,1.64063 0,0.68749 -0.52734,1.42578 -1.17187,1.64062 -0.69712,0.23237 -1.17188,-0.43229 -1.17188,-1.64062 0,-1.20834 0.47476,-1.873 1.17188,-1.64063 z m -0.0586,89.980484 c 1.73833,0.57944 2.02665,2.59765 0.37109,2.59765 -0.8164,0 -1.48437,-0.66797 -1.48437,-1.48437 0,-0.81641 0.50098,-1.31739 1.11328,-1.11328 z m 0.42373,-104.564374 c 0.87491,-0.87491 2.21298,0.18237 2.21298,1.7486 0,0.743 -0.63281,1.35092 -1.40625,1.35092 -1.41209,0 -1.92719,-1.97906 -0.80673,-3.09952 z m 0.23977,111.441484 c 0.46159,-0.28528 1.09441,0.14621 1.40625,0.95885 0.89812,2.34048 0.67285,3.19919 -0.83927,3.19919 -1.50934,0 -1.95901,-3.29771 -0.56698,-4.15804 z m 1.09811,-139.786764 c 0.54993,-0.33988 1.22498,-0.39284 1.50012,-0.1177 0.67155,0.67154 -0.51171,2.5 -1.61782,2.5 -1.1981,0 -1.11814,-1.61851 0.1177,-2.3823 z m 1.20003,11.2651 c 2.57915,-10.3118 3.1728,-11.4612 4.78258,-9.2597 1.07164,1.46556 1.23174,1.39413 1.78109,-0.79465 0.45895,-1.82862 1.05114,-2.28793 2.47112,-1.91659 2.21147,0.57831 3.78075,-2.306 1.8903,-3.47436 -0.75065,-0.46393 -0.945,-1.40765 -0.51146,-2.48351 1.39113,-3.45214 2.56341,2.38289 1.48705,7.40178 -1.26596,5.90298 -1.23838,6.33173 0.40723,6.33173 1.03646,0 1.24192,-0.70445 0.82031,-2.8125 -0.36277,-1.81387 -0.18167,-2.8125 0.51005,-2.8125 0.65428,0 0.85928,-0.84973 0.52567,-2.17894 -0.6873,-2.73842 2.00167,-5.53887 2.94869,-3.07096 0.3216,0.83808 0.0577,2.15882 -0.58647,2.93498 -0.64415,0.77616 -1.25372,2.14188 -1.3546,3.03494 -0.90662,8.02641 -3.97578,12.91599 -4.33992,6.91405 -0.0546,-0.90045 -0.40526,-0.56669 -0.84405,0.80343 -0.83709,2.61382 -1.10034,5.92666 -0.31661,3.98437 0.73557,-1.82292 3.31308,-1.41348 2.95093,0.46875 -0.477,2.47913 -4.49013,2.36705 -4.58333,-0.128 -0.0407,-1.08975 -0.28768,-1.4514 -0.54882,-0.80366 -0.26115,0.64775 -0.90782,0.91011 -1.43705,0.58302 -1.19178,-0.73656 -2.5989,1.35567 -2.5989,3.86427 0,1.55764 0.15625,1.63698 0.92314,0.46875 0.80338,-1.22381 1.03675,-1.22962 1.79879,-0.0448 1.19724,1.86154 0.43699,2.77982 -1.81408,2.19116 -1.43129,-0.37429 -1.87407,-0.0282 -1.87407,1.46484 0,1.35254 0.43332,1.78864 1.40625,1.41529 1.55763,-0.59772 2.01518,1.98648 0.51579,2.91315 -1.36711,0.84493 -3.08944,-3.14604 -2.45264,-5.68325 0.41584,-1.65685 0.18009,-2.25642 -0.88721,-2.25642 -1.7765,0 -3.11176,3.02139 -1.56335,3.53753 0.60839,0.20279 1.10616,1.00153 1.10616,1.77497 0,2.32048 -2.32822,0.81979 -2.53628,-1.6348 -0.10589,-1.2493 0.75977,-6.07888 1.92369,-10.7324 z m 2.01884,4.2422 c 0.77378,0 1.40625,-0.83007 1.40625,-1.84558 0,-1.25535 -0.44972,-1.673 -1.40625,-1.30595 -0.77343,0.2968 -1.40625,1.12731 -1.40625,1.84558 0,0.71827 0.63282,1.30595 1.40625,1.30595 z m 0.9375,-5.625 c 0.875,0 1.40625,-0.88542 1.40625,-2.34375 0,-2.67509 -1.52184,-3.16905 -2.16625,-0.70313 -0.73801,2.82406 -0.68242,3.04688 0.76,3.04688 z m 4.21875,1.20914 c 1.36199,0.35616 1.875,0.0288 1.875,-1.19661 0,-1.7117 -2.16431,-3.16072 -3.18959,-2.13544 -1.16204,1.16204 -0.49233,2.85952 1.31459,3.33205 z m 0.9375,-5.36093 c 1.175,0 1.875,-0.625 1.875,-1.67411 0,-1.89974 -2.40917,-2.28642 -3.12911,-0.50223 -0.79824,1.97827 -0.6841,2.17634 1.25411,2.17634 z m -9.25236,72.044754 c 1.29289,-0.79906 3.07609,1.03616 2.2716,2.33786 -0.34644,0.56055 -0.98173,1.01918 -1.41176,1.01918 -1.24711,0 -1.93652,-2.69162 -0.85984,-3.35704 z m 0.27737,17.41954 c 0.86966,0 1.47499,0.80156 1.47499,1.95312 0,2.28474 -2.19072,1.96179 -2.64686,-0.39019 -0.17941,-0.92508 0.29884,-1.56293 1.17187,-1.56293 z m -0.0545,8.53974 c 1.00708,-0.8358 1.53418,-0.85304 2.02055,-0.0661 0.94497,1.529 -1.15408,3.42586 -2.40583,2.17411 -0.67798,-0.67798 -0.55999,-1.32352 0.38528,-2.10803 z m 0.0648,45.0426 c 0.86006,0.17815 1.54146,0.74578 1.51422,1.26141 -0.0735,1.39152 -2.17089,1.13587 -2.65749,-0.32391 -0.26285,-0.78855 0.16573,-1.13999 1.14327,-0.9375 z m 0.18922,-80.11936 c 0.87492,-0.87491 2.21299,0.18237 2.21299,1.7486 0,0.74301 -0.63281,1.35092 -1.40625,1.35092 -1.41209,0 -1.9272,-1.97905 -0.80674,-3.09952 z m 0.48283,18.30405 c 1.45979,0.48659 1.71543,2.58399 0.32391,2.65749 -0.51562,0.0273 -1.08326,-0.65416 -1.26141,-1.51422 -0.20249,-0.97754 0.14895,-1.40612 0.9375,-1.14327 z m 0.32391,26.04547 c 0.77344,0 1.40625,0.63281 1.40625,1.40625 0,0.77344 -0.63281,1.40625 -1.40625,1.40625 -0.77343,0 -1.40625,-0.63281 -1.40625,-1.40625 0,-0.77344 0.63282,-1.40625 1.40625,-1.40625 z m -0.48368,41.01562 c 0.49061,1.16016 1.3466,2.10938 1.90221,2.10938 0.64675,0 0.78872,1.18049 0.39462,3.28125 -0.43017,2.29298 -0.27117,3.28125 0.5279,3.28125 0.71893,0 0.94618,0.78605 0.6121,2.11717 -0.53538,2.13309 0.70901,5.31442 1.69362,4.32981 0.29148,-0.29148 0.0286,-3.75512 -0.58427,-7.69698 -1.18326,-7.61107 -0.92493,-8.74432 1.75645,-7.70511 1.59739,0.61909 1.5994,0.71165 0.0404,1.85979 -0.90235,0.66456 -1.64063,1.90005 -1.64063,2.74554 0,1.80388 1.52696,2.06393 2.14551,0.3654 0.23472,-0.64453 0.7148,0.51563 1.06685,2.57813 0.35204,2.0625 1.0532,4.50544 1.55812,5.42876 0.50492,0.92332 0.6733,2.07476 0.37418,2.55875 -0.29913,0.48399 -0.016,1.83793 0.62908,3.00874 0.64511,1.17081 1.07092,2.80245 0.94624,3.62585 -0.12469,0.82341 0.41704,2.03137 1.20383,2.68436 0.7868,0.65298 1.18293,1.5879 0.88028,2.07759 -0.30265,0.48969 0.18926,1.70752 1.09312,2.70627 1.42938,1.57945 1.45143,1.81593 0.16938,1.81593 -1.46134,0 -2.4957,-2.27129 -5.9772,-13.125 -0.90967,-2.83594 -1.80136,-4.46793 -1.98153,-3.62664 -0.18017,0.84128 0.54917,4.1322 1.62075,7.31313 1.89034,5.6114 1.86427,7.56351 -0.10103,7.56351 -0.5221,0 -0.8136,-1.12335 -0.6478,-2.49633 0.16925,-1.40149 -0.21277,-2.66935 -0.87104,-2.89084 -0.76776,-0.25831 -0.98605,0.19889 -0.63234,1.32446 0.51506,1.63904 0.49002,1.64071 -0.53851,0.0358 -1.14093,-1.78031 -5.07425,-17.29628 -5.99006,-23.62933 -0.41658,-2.88073 -0.33551,-3.26104 0.34973,-1.64063 z m 5.63993,20.85938 c 0.51563,0 0.9375,-0.86865 0.9375,-1.93033 0,-1.06168 -0.42187,-1.6696 -0.9375,-1.35092 -0.51562,0.31868 -0.9375,1.18732 -0.9375,1.93033 0,0.74301 0.42188,1.35092 0.9375,1.35092 z m 0.9375,-8.90625 c 0.51563,0.31868 0.9375,-0.26435 0.9375,-1.2956 0,-1.03125 -0.42187,-2.13572 -0.9375,-2.4544 -0.51562,-0.31868 -0.9375,0.26435 -0.9375,1.2956 0,1.03125 0.42188,2.13572 0.9375,2.4544 z M 60.827548,42.214436 c 1.39053,-0.8594 1.96809,-0.0512 1.26771,1.77398 -0.32398,0.84428 -0.96673,1.30164 -1.42832,1.01635 -1.13535,-0.70168 -1.0585,-2.03688 0.16061,-2.79033 z m 0.4845,60.507304 c 1.65556,0 1.36724,2.01821 -0.37109,2.59765 -0.61231,0.20411 -1.11329,-0.29687 -1.11329,-1.11328 0,-0.8164 0.66797,-1.48437 1.48438,-1.48437 z m -0.6022,7.5 c 1.62418,0 1.92468,1.65009 0.51375,2.82107 -1.16166,0.9641 -1.39593,0.82459 -1.39593,-0.83128 0,-1.09438 0.39698,-1.98979 0.88218,-1.98979 z m 0.52407,60 c 0.77344,0 1.40625,0.63281 1.40625,1.40625 0,0.77344 -0.63281,1.40625 -1.40625,1.40625 -0.77343,0 -1.40625,-0.63281 -1.40625,-1.40625 0,-0.77344 0.63282,-1.40625 1.40625,-1.40625 z m 0.53113,-83.007304 c 1.39608,-0.86282 2.15511,0.13755 1.46631,1.93254 -0.31787,0.82835 -1.0028,1.24352 -1.52206,0.9226 -1.22957,-0.75991 -1.20386,-2.07666 0.0557,-2.85514 z m -0.21863,8.0073 c 1.32094,0 1.92694,1.05599 1.39761,2.43541 -0.75079,1.95651 -2.17886,1.5892 -2.17886,-0.56041 0,-1.03125 0.35157,-1.875 0.78125,-1.875 z m 0.70313,83.437504 c 1.65556,0 1.36724,2.01821 -0.37109,2.59765 -0.61231,0.20411 -1.11329,-0.29687 -1.11329,-1.11328 0,-0.8164 0.66797,-1.48437 1.48438,-1.48437 z m 0.0526,8.15048 c 0.87491,-0.87491 2.21298,0.18237 2.21298,1.7486 0,0.74301 -0.63281,1.35092 -1.40625,1.35092 -1.41209,0 -1.92719,-1.97905 -0.80673,-3.09952 z m 1.27552,-150.650484 c 0.51563,0 0.9375,0.42187 0.9375,0.9375 0,0.51562 -0.42187,0.9375 -0.9375,0.9375 -0.51562,0 -0.9375,-0.42188 -0.9375,-0.9375 0,-0.51563 0.42188,-0.9375 0.9375,-0.9375 z m 0.14485,43.32953 c 1.45978,0.48659 1.71543,2.58399 0.3239,2.65749 -0.51562,0.0272 -1.08326,-0.65417 -1.2614,-1.51422 -0.20249,-0.97755 0.14894,-1.40612 0.9375,-1.14327 z m -0.0632,43.338744 c 0.56055,-0.34645 1.38673,-0.26235 1.83596,0.18688 1.10876,1.10876 -0.50524,3.54902 -1.81284,2.74088 -1.32508,-0.81895 -1.33533,-2.11677 -0.0231,-2.92776 z m -0.41372,9.60126 c 1.32705,-1.32705 3.14453,-0.57612 3.14453,1.29921 0,1.31059 -0.50911,1.84501 -1.56293,1.64062 -1.72545,-0.33463 -2.58643,-1.935 -1.5816,-2.93983 z m 0,16.875 c 1.32705,-1.32705 3.14453,-0.57612 3.14453,1.29921 0,1.31059 -0.50911,1.84501 -1.56293,1.64062 -1.72545,-0.33463 -2.58643,-1.935 -1.5816,-2.93983 z m 0.27675,45.29297 c 1.3509,0 2.28881,2.00747 1.2535,2.68294 -0.50436,0.32907 -1.15792,1.23112 -1.45234,2.00456 -0.29442,0.77344 -0.56862,0.0352 -0.60932,-1.64063 -0.0407,-1.67578 0.32296,-3.04687 0.80816,-3.04687 z m 0.62173,-148.378914 c 0.37598,-0.37598 1.33047,-0.68359 2.12109,-0.68359 1.05525,0 1.16016,0.27734 0.39454,1.04297 -0.57364,0.57363 -1.52813,0.88125 -2.1211,0.68359 -0.59297,-0.19766 -0.77051,-0.66699 -0.39453,-1.04297 z m 0.0586,67.441414 c 1.45343,-1.45343 3.125,-0.48041 3.125,1.81905 0,1.84349 -0.36438,2.30423 -1.48292,1.875 -0.81561,-0.31298 -1.65936,-0.56905 -1.875,-0.56905 -0.63187,0 -0.44984,-2.44223 0.23292,-3.125 z m 0.54688,26.79643 c 1.77393,0.59066 2.02612,3.51607 0.30312,3.51607 -0.86966,0 -1.475,-0.80156 -1.475,-1.95312 0,-1.14561 0.48452,-1.79181 1.17188,-1.56295 z m 0.23437,16.64107 c 0.78125,0 1.40625,0.83333 1.40625,1.875 0,1.04167 -0.625,1.875 -1.40625,1.875 -0.78125,0 -1.40625,-0.83333 -1.40625,-1.875 0,-1.04167 0.625,-1.875 1.40625,-1.875 z m 0.49683,-59.548614 c 1.65349,-1.02191 3.38913,1.19287 2.2946,2.928054 -0.50403,0.79907 -1.3383,1.52574 -1.85393,1.61483 -1.33974,0.23148 -1.72582,-3.748614 -0.44067,-4.542884 z m 0.44067,7.986114 c 0.77344,0 1.40625,0.63281 1.40625,1.40625 0,0.77344 -0.63281,1.40625 -1.40625,1.40625 -0.77343,0 -1.40625,-0.63281 -1.40625,-1.40625 0,-0.77344 0.63282,-1.40625 1.40625,-1.40625 z m 0,60 c 0.78125,0 1.40625,0.83333 1.40625,1.875 0,1.04167 -0.625,1.875 -1.40625,1.875 -0.78125,0 -1.40625,-0.83333 -1.40625,-1.875 0,-1.04167 0.625,-1.875 1.40625,-1.875 z m 0,9.375 c 0.78125,0 1.40625,0.83333 1.40625,1.875 0,1.04167 -0.625,1.875 -1.40625,1.875 -0.78125,0 -1.40625,-0.83333 -1.40625,-1.875 0,-1.04167 0.625,-1.875 1.40625,-1.875 z m 0.78939,-135.814584 c 0.69197,-0.57428 1.50665,-0.79563 1.8104,-0.49188 0.90587,0.90586 -0.35486,3.18146 -1.76259,3.18146 -1.65685,0 -1.68058,-1.3345 -0.0478,-2.68958 z m 0.28658,144.412084 c 0.94324,0.18165 1.86362,1.10203 2.04527,2.04528 0.23852,1.23851 -0.1462,1.62324 -1.38472,1.38472 -0.94325,-0.18165 -1.86362,-1.10203 -2.04527,-2.04528 -0.23852,-1.23851 0.1462,-1.62324 1.38472,-1.38472 z m 0.50604,-101.210784 c 1.77128,-1.77129 2.63671,-1.35255 2.63671,1.27577 0,1.74814 -0.4304,2.32902 -1.56293,2.10937 -2.0221,-0.39216 -2.51449,-1.94444 -1.07378,-3.38514 z m 0.29296,7.30078 c 0.78125,0 1.40625,0.83333 1.40625,1.875 0,1.04166 -0.625,1.875 -1.40625,1.875 -0.78125,0 -1.40625,-0.83334 -1.40625,-1.875 0,-1.04167 0.625,-1.875 1.40625,-1.875 z m 0,102.187504 c 0.77344,0 1.40625,0.63281 1.40625,1.40625 0,0.77344 -0.63281,1.40625 -1.40625,1.40625 -0.77343,0 -1.40625,-0.63281 -1.40625,-1.40625 0,-0.77344 0.63282,-1.40625 1.40625,-1.40625 z m 1.07169,-158.828024 c 0.84724,-0.32511 1.73323,-0.39832 1.96887,-0.16267 0.74507,0.74506 -0.75104,2.42819 -2.15838,2.42819 -1.83893,0 -1.71041,-1.53645 0.18951,-2.26552 z m -0.52125,42.05878 c 0.56055,-0.34644 1.45192,-0.19716 1.98081,0.33174 1.18278,1.18278 0.18387,3 -1.64907,3 -1.5784,0 -1.81863,-2.41279 -0.33174,-3.33174 z m 0.45008,123.646584 c 1.93285,-0.7417 3.95111,1.20228 2.625,2.52839 -1.07362,1.07363 -4.09427,0.26359 -4.09427,-1.09795 0,-0.47665 0.66117,-1.12034 1.46927,-1.43044 z m 0.48742,-130.209084 c 0.56055,-0.34644 1.4708,-0.17828 2.02277,0.37369 1.16991,1.16991 -0.83181,4.21334 -2.21068,3.36115 -1.15457,-0.71357 -1.04077,-2.97547 0.18791,-3.73484 z m 1.32456,137.394244 c 0.77378,0 1.40625,0.83006 1.40625,1.84558 0,1.25534 -0.44972,1.673 -1.40625,1.30595 -0.77343,-0.29681 -1.40625,-1.12731 -1.40625,-1.84558 0,-0.71827 0.63282,-1.30595 1.40625,-1.30595 z m -0.41015,27.36328 c 0.67676,0.22558 1.41504,0.96386 1.64062,1.64063 0.23438,0.70312 -0.11718,1.05468 -0.82031,0.82031 -0.67676,-0.22559 -1.41504,-0.96387 -1.64062,-1.64063 -0.23438,-0.70312 0.11718,-1.05468 0.82031,-0.82031 z m 1.56656,-128.82288 c 0.19804,2.20504 0.19525,5.58004 -0.006,7.5 -0.20145,1.91997 -0.36349,0.11585 -0.36008,-4.00915 0.003,-4.125 0.16823,-5.69588 0.36627,-3.49085 z m -0.0502,107.26929 c 0.81739,-2.04014 3.07691,1.85365 2.48398,4.28061 -0.28507,1.16685 -0.0421,2.69541 0.54005,3.3968 0.5821,0.70138 0.78898,1.97724 0.45974,2.83524 -0.33868,0.88258 0.0712,2.30016 0.94393,3.2645 0.86195,0.95244 1.28151,2.38479 0.9509,3.24633 -0.34206,0.89138 -0.12719,1.54183 0.50932,1.54183 0.65125,0 0.87228,0.72055 0.54111,1.76398 -0.35942,1.13244 -0.0245,1.96944 0.93563,2.33785 1.10441,0.4238 1.36319,0.14638 0.98958,-1.06085 -1.23803,-4.00038 -3.27756,-15.28409 -3.76927,-20.85348 -0.33057,-3.74434 0.31137,-1.36144 1.66503,6.1806 1.21167,6.7509 2.86752,13.60637 3.67968,15.23438 1.36235,2.73089 1.35522,2.9589 -0.0921,2.94567 -3.67765,-0.0337 -6.94887,-6.34273 -8.20728,-15.82908 -0.35193,-2.65301 -1.00615,-5.05002 -1.45381,-5.32669 -0.88301,-0.54574 -0.94916,-2.02915 -0.17648,-3.95769 z m 0.92504,-175.809694 c 1.07872,-1.07872 2.1875,-0.68273 2.1875,0.78125 0,0.77343 -0.63281,1.40625 -1.40625,1.40625 -1.46397,0 -1.85996,-1.10878 -0.78125,-2.1875 z m 0.33008,53.75 c 0.4772,-1.456 0.57003,-0.21314 0.24508,3.28125 -0.2877,3.09375 -0.67543,5.80078 -0.86162,6.01563 -0.65541,0.75625 -0.14225,-6.98177 0.61654,-9.29688 z m 1.46535,-60.36845 c 2.11729,-0.81248 2.27188,-0.73492 1.6686,0.8372 -0.2968,0.77344 -1.12731,1.40625 -1.84558,1.40625 -1.77613,0 -1.6546,-1.54061 0.17698,-2.24345 z m 1.04175,82.183174 c 0.2377,0.91216 0.22207,2.17778 -0.0347,2.8125 -0.2568,0.63471 -0.45128,-0.11159 -0.43217,-1.65847 0.0191,-1.54687 0.22921,-2.06619 0.46691,-1.15403 z m -0.004,89.04465 c 0.23581,0.90235 0.23581,2.37891 0,3.28125 -0.2358,0.90235 -0.42874,0.16407 -0.42874,-1.64062 0,-1.80469 0.19294,-2.54297 0.42874,-1.64063 z m 0.236,35.39063 c 0.48519,0 1.1429,0.42187 1.46157,0.9375 0.31868,0.51562 -0.0783,0.9375 -0.88217,0.9375 -0.80386,0 -1.46158,-0.42188 -1.46158,-0.9375 0,-0.51563 0.39698,-0.9375 0.88218,-0.9375 z m 1.50251,-196.551494 c 0.79567,-0.30533 1.68167,-0.32016 1.96887,-0.0329 0.82098,0.82098 -0.57154,2.52194 -2.06463,2.52194 -1.79893,0 -1.73013,-1.78834 0.0958,-2.48899 z m -0.80627,25.75071 c 0.27082,0.67675 0.23751,1.48535 -0.074,1.79687 -0.31152,0.31152 -0.5331,-0.24219 -0.49239,-1.23047 0.045,-1.09213 0.26713,-1.31428 0.56641,-0.5664 z m 0.0378,32.7539 c 0.20797,1.67578 0.20797,4.417974 0,6.093764 -0.20796,1.67578 -0.37811,0.30468 -0.37811,-3.04688 0,-3.351574 0.17015,-4.722664 0.37811,-3.046884 z m 1.22449,-11.01562 c 0.65439,-0.98269 0.75195,-0.13555 0.32393,2.8125 -0.76243,5.25126 -1.29358,5.99997 -1.27474,1.79687 0.008,-1.76172 0.43576,-3.83594 0.95081,-4.60937 z m -0.0277,153.281254 c 0.51562,0.31868 0.9375,0.76545 0.9375,0.99283 0,0.22738 -0.42188,0.41342 -0.9375,0.41342 -0.51563,0 -0.9375,-0.44678 -0.9375,-0.99283 0,-0.54606 0.42187,-0.73209 0.9375,-0.41342 z m 1.40624,-213.281254 c 0.77344,0 1.40625,0.1658 1.40625,0.36845 0,0.20264 -0.63281,0.61128 -1.40625,0.90807 -0.77343,0.2968 -1.40625,0.131 -1.40625,-0.36845 0,-0.49944 0.63282,-0.90807 1.40625,-0.90807 z m 0.0404,6.88601 c 0.79568,-0.30533 1.68167,-0.32016 1.96888,-0.0329 0.82098,0.82098 -0.57155,2.52194 -2.06464,2.52194 -1.79892,0 -1.73012,-1.78834 0.0958,-2.48899 z m 0.4958,12.85992 c 0.98142,-4.35067 2.25889,-8.35848 2.83883,-8.90625 0.77431,-0.73135 0.85736,-0.37329 0.31261,1.34782 -0.408,1.28906 -1.68078,6.14062 -2.8284,10.78125 -2.5473,10.30055 -2.80152,7.76437 -0.32304,-3.22282 z m -1.2928,154.881294 c 0.2377,0.91215 0.22207,2.17778 -0.0347,2.8125 -0.2568,0.63471 -0.45128,-0.1116 -0.43218,-1.65847 0.0191,-1.54688 0.22922,-2.06619 0.46692,-1.15403 z m 0.96055,-96.56745 c 0.21549,1.42505 0.20973,3.53443 -0.0128,4.6875 -0.22252,1.15306 -0.39883,-0.0129 -0.39179,-2.59102 0.007,-2.57813 0.1891,-3.52154 0.40459,-2.09648 z m -0.0518,102.64335 c 0.26008,0.64454 0.26008,1.69922 0,2.34375 -0.26007,0.64454 -0.47286,0.11719 -0.47286,-1.17187 0,-1.28906 0.21279,-1.81641 0.47286,-1.17188 z m 1.23385,30.49063 c 1.0424,0.0785 1.89526,0.47486 1.89526,0.88075 0,1.03666 -2.58759,0.92286 -3.24618,-0.14276 -0.29939,-0.48442 0.30853,-0.81652 1.35092,-0.73799 z m 0.56713,-209.318754 c 1.65556,0 1.36724,2.01821 -0.37109,2.59765 -0.61231,0.20411 -1.11329,-0.29687 -1.11329,-1.11328 0,-0.8164 0.66797,-1.48437 1.48438,-1.48437 z m -0.0995,60.46875 c 1.60097,-6.22846 1.62525,-4.54592 0.0744,5.15625 -0.95672,5.985294 -1.27446,6.918684 -1.27653,3.75 -0.002,-2.32032 0.53944,-6.32813 1.20213,-8.90625 z m -1.13705,123.281254 c 0.25412,0.25781 1.17297,4.05469 2.0419,8.4375 0.86892,4.38281 2.18576,9.77647 2.92631,11.98589 1.55204,4.63047 1.7446,6.6267 0.51231,5.31099 -1.33925,-1.42991 -6.80042,-27.07348 -5.48052,-25.73438 z m 1.62717,-160.312504 c 1.00911,-3.15095 1.00911,0.25301 0,4.21875 -0.64283,2.52629 -0.71743,2.57399 -0.73313,0.46875 -0.01,-1.28907 0.3203,-3.39844 0.73313,-4.6875 z m 0.23742,152.674924 c 0.47236,0.47235 0.70186,1.8567 0.51,3.07632 -0.2952,1.87659 -0.42724,1.74454 -0.85883,-0.85882 -0.30885,-1.86302 -0.17127,-2.7376 0.34883,-2.2175 z m -0.0584,36.72989 c 0.87192,-0.0164 1.86338,0.42013 2.20326,0.97006 1.02125,1.65242 -0.0554,1.8841 -1.98199,0.42651 -1.58613,-1.19997 -1.61312,-1.37038 -0.22127,-1.39657 z m 2.63348,-201.592314 c 2.25479,-6.87465 2.28107,-3.96371 0.0339,3.75 -0.9764,3.35156 -1.76396,5.03906 -1.75015,3.75 0.0138,-1.28907 0.78615,-4.66407 1.7163,-7.5 z m -1.22532,19.00221 c 0.2377,0.91216 0.22207,2.17779 -0.0347,2.8125 -0.2568,0.63472 -0.45128,-0.11159 -0.43218,-1.65846 0.0191,-1.54688 0.22922,-2.06619 0.46692,-1.15404 z m -0.0288,53.888424 c 0.26008,0.64453 0.26008,1.69921 0,2.34375 -0.26007,0.64453 -0.47286,0.11718 -0.47286,-1.17188 0,-1.28906 0.21279,-1.81641 0.47286,-1.17187 z m 0.0195,73.18359 c 0.27082,0.67675 0.23751,1.48535 -0.074,1.79688 -0.31152,0.31152 -0.5331,-0.2422 -0.49239,-1.23047 0.045,-1.09214 0.26713,-1.31428 0.56641,-0.56641 z m 0.009,26.678 c 0.2377,0.91215 0.22207,2.17778 -0.0347,2.8125 -0.2568,0.63471 -0.45128,-0.1116 -0.43217,-1.65847 0.0191,-1.54688 0.22921,-2.06619 0.46691,-1.15403 z m 2.61329,-167.798014 c 1.22813,-4.75175 2.71581,-9.39237 3.30594,-10.3125 0.97822,-1.52524 1.01653,-1.5074 0.43385,0.20204 -0.35151,1.03125 -1.82908,6.51562 -3.28348,12.1875 -1.45439,5.67187 -2.65447,9.46875 -2.66682,8.4375 -0.0124,-1.03125 0.98237,-5.76279 2.21051,-10.51454 z m -1.65368,55.280174 c 0.21481,1.41796 0.21481,3.73828 0,5.15625 -0.2148,1.41796 -0.39055,0.25781 -0.39055,-2.57813 0,-2.835944 0.17575,-3.996104 0.39055,-2.57812 z m -0.0311,91.46484 c 0.27082,0.67675 0.23751,1.48535 -0.074,1.79688 -0.31152,0.31152 -0.5331,-0.2422 -0.49239,-1.23047 0.045,-1.09214 0.26713,-1.31428 0.56641,-0.56641 z m -0.0195,10.2539 c 0.26008,0.64454 0.26008,1.69922 0,2.34375 -0.26007,0.64454 -0.47286,0.11719 -0.47286,-1.17187 0,-1.28906 0.21279,-1.81641 0.47286,-1.17188 z m 0,15.9375 c 0.26008,0.64454 0.26008,1.69922 0,2.34375 -0.26007,0.64454 -0.47286,0.11719 -0.47286,-1.17187 0,-1.28906 0.21279,-1.81641 0.47286,-1.17188 z m 0.9375,-153.750004 c 0.26008,0.64453 0.26008,1.69922 0,2.34375 -0.26007,0.64453 -0.47286,0.11719 -0.47286,-1.17187 0,-1.28907 0.21279,-1.81641 0.47286,-1.17188 z m 0.0407,27.1875 c 0.22346,1.16016 0.22346,3.0586 0,4.21875 -0.22345,1.16016 -0.40628,0.21094 -0.40628,-2.10937 0,-2.32032 0.18283,-3.26953 0.40628,-2.10938 z m -0.0407,115.312504 c 0.26008,0.64454 0.26008,1.69922 0,2.34375 -0.26007,0.64454 -0.47286,0.11719 -0.47286,-1.17187 0,-1.28906 0.21279,-1.81641 0.47286,-1.17188 z m 0,15.9375 c 0.26008,0.64454 0.26008,1.69922 0,2.34375 -0.26007,0.64454 -0.47286,0.11719 -0.47286,-1.17187 0,-1.28906 0.21279,-1.81641 0.47286,-1.17188 z m 0.95703,-162.128904 c 0.27082,0.67675 0.23751,1.48535 -0.074,1.79687 -0.31152,0.31152 -0.5331,-0.24219 -0.49239,-1.23047 0.045,-1.09213 0.26713,-1.31428 0.56641,-0.5664 z m -0.0195,25.2539 c 0.26008,0.64453 0.26008,1.69922 0,2.34375 -0.26007,0.64453 -0.47286,0.11719 -0.47286,-1.17187 0,-1.28907 0.21279,-1.81641 0.47286,-1.17188 z m 0,115.312504 c 0.26008,0.64454 0.26008,1.69922 0,2.34375 -0.26007,0.64454 -0.47286,0.11719 -0.47286,-1.17187 0,-1.28906 0.21279,-1.81641 0.47286,-1.17188 z m 0.0288,10.7991 c 0.2377,0.91215 0.22207,2.17778 -0.0347,2.8125 -0.2568,0.63471 -0.45128,-0.1116 -0.43217,-1.65847 0.0191,-1.54688 0.22921,-2.06619 0.46691,-1.15403 z m 1.26193,19.90403 c 1.99503,6.19737 2.27203,7.90174 1.05893,6.51562 -1.02611,-1.17245 -2.98421,-8.12907 -2.92012,-10.37439 0.0277,-0.97143 0.86526,0.76502 1.86119,3.85877 z m -0.31248,-125.39062 c 0.22345,1.16015 0.22345,3.05859 0,4.21875 -0.22346,1.16015 -0.40629,0.21093 -0.40629,-2.10938 0,-2.32031 0.18283,-3.26953 0.40629,-2.10937 z m -0.0407,110.62499 c 0.26007,0.64454 0.26007,1.69922 0,2.34375 -0.26008,0.64454 -0.47287,0.11719 -0.47287,-1.17187 0,-1.28906 0.21279,-1.81641 0.47287,-1.17188 z m 0.95702,-164.941404 c 0.27082,0.67675 0.23751,1.48535 -0.074,1.79687 -0.31152,0.31152 -0.5331,-0.24219 -0.49239,-1.23047 0.045,-1.09213 0.26713,-1.31428 0.56641,-0.5664 z m 0.29708,9.55078 c 0.61836,-1.93083 0.76454,-2.01342 0.8297,-0.46875 0.0435,1.03125 -0.32986,2.50781 -0.8297,3.28125 -1.06155,1.64263 -1.06155,0.50219 0,-2.8125 z m -0.2485,28.59375 c 0.20559,-2.0625 0.6973,-4.0806 1.09269,-4.48466 0.62953,-0.64335 0.412,2.01598 -1.1337,13.85966 -0.48651,3.727864 -0.45078,-4.44136 0.041,-9.375 z m -0.0486,102.480474 c 0.27082,0.67675 0.23751,1.48535 -0.074,1.79688 -0.31152,0.31152 -0.5331,-0.2422 -0.49239,-1.23047 0.045,-1.09214 0.26713,-1.31428 0.5664,-0.56641 z m 1.59842,36.27891 c 1.13294,4.64579 2.4202,9.07548 2.86056,9.84375 0.62659,1.09318 0.5429,1.15881 -0.38498,0.30189 -1.17552,-1.08565 -4.77549,-14.48428 -4.61764,-17.18627 0.0452,-0.77344 1.00912,2.39485 2.14206,7.04063 z m -0.66092,-30.65391 c 0.27081,0.67675 0.23751,1.48535 -0.074,1.79688 -0.31153,0.31152 -0.53311,-0.2422 -0.4924,-1.23047 0.045,-1.09214 0.26713,-1.31428 0.56641,-0.56641 z m -0.0195,15.8789 c 0.26007,0.64454 0.26007,1.69922 0,2.34375 -0.26008,0.64454 -0.47287,0.11719 -0.47287,-1.17187 0,-1.28906 0.21279,-1.81641 0.47287,-1.17188 z m 0.95695,-170.566404 c 0.27082,0.67675 0.23751,1.48535 -0.074,1.79687 -0.31152,0.31152 -0.5331,-0.24219 -0.49239,-1.23047 0.045,-1.09213 0.26713,-1.31428 0.56641,-0.5664 z m -0.27144,174.628904 c 0.20294,0.21485 1.43572,4.39844 2.73952,9.29688 1.3038,4.89844 2.67641,9.75 3.05025,10.78125 0.4897,1.35084 0.38739,1.60815 -0.36598,0.92042 -0.57512,-0.52503 -2.11378,-5.06545 -3.41923,-10.08985 -2.25724,-8.68768 -2.82498,-11.77725 -2.00456,-10.9087 z m 1.25916,-180.546874 c 0.81567,-3.23245 2.15823,-6.36988 2.55571,-5.97241 0.20976,0.20976 -0.40528,2.69405 -1.36674,5.52064 -1.59731,4.69591 -2.33019,4.97438 -1.18897,0.45177 z m -0.0502,14.35547 c 0.27082,0.67675 0.23751,1.48535 -0.074,1.79687 -0.31152,0.31152 -0.5331,-0.24219 -0.49239,-1.23047 0.045,-1.09213 0.26713,-1.31428 0.5664,-0.5664 z m 0,156.562504 c 0.27082,0.67675 0.23751,1.48535 -0.074,1.79688 -0.31152,0.31152 -0.5331,-0.2422 -0.49239,-1.23047 0.045,-1.09214 0.26713,-1.31428 0.5664,-0.56641 z m 0.64146,3.0664 c 0.18941,0.21485 0.60133,2.07813 0.91538,4.14063 0.39797,2.61356 0.31357,3.18178 -0.27849,1.875 -0.81538,-1.79973 -1.34702,-6.82111 -0.63689,-6.01563 z m 2.90134,-173.850964 c 1.93669,-5.48825 3.35302,-8.52672 3.30327,-7.08654 -0.0469,1.35909 -5.49034,16.05585 -5.52678,14.92188 -0.0249,-0.77344 0.97573,-4.29934 2.22351,-7.83534 z m 1.00862,7.36659 c 1.2534,-4.125 2.75744,-9.29297 3.34232,-11.48438 0.58488,-2.1914 1.40846,-3.98437 1.830172,-3.98437 0.42172,0 -0.479802,3.68782 -2.003372,8.19515 -1.52358,4.50733 -3.36087,10.94093 -4.08288,14.29687 -0.76452,3.55355 -1.32368,4.92718 -1.33893,3.28923 -0.0144,-1.54688 0.9993,-6.1875 2.25269,-10.3125 z m -1.73894,175.605474 c 0.27082,0.67675 0.23751,1.48535 -0.074,1.79688 -0.31152,0.31152 -0.5331,-0.2422 -0.49239,-1.23047 0.045,-1.09214 0.26713,-1.31428 0.56641,-0.56641 z m 0.86092,3.45703 c 1.78097,4.01542 5.50186,16.40625 4.9267,16.40625 -0.76424,0 -5.54245,-14.30878 -5.41652,-16.22027 0.0407,-0.61791 0.26113,-0.70161 0.48982,-0.18598 z M 16.379198,73.819786 c 0.85335,0.94295 2.21285,1.71445 3.0211,1.71445 1.07143,0 0.90508,-0.39538 -0.61405,-1.45941 -1.40585,-0.9847 -2.08827,-2.4332 -2.09795,-4.45313 -0.0109,-2.27772 -0.23172,-2.65739 -0.92315,-1.58746 -1.32952,2.05728 -1.13947,3.84794 0.61405,5.78555 z m 1.19858,32.221754 c 1.22752,-0.75865 1.32867,-3.3198 0.13111,-3.3198 -0.47782,0 -1.03298,0.73828 -1.23369,1.64063 -0.45507,2.04589 -0.17672,2.46981 1.10258,1.67917 z m 2.85167,4.58792 c 2.5243,6.63943 9.63297,2.1202 10.74131,-6.82863 0.3416,-2.75806 1.67357,-8.346374 2.95995,-12.418464 2.78868,-8.82775 1.46777,-12.29314 -3.99856,-10.49014 -5.83448,1.92443 -12.50467,22.367504 -9.7027,29.737234 z m 3.9607,-3.97022 c 0.61875,-0.61875 1.54688,-1.125 2.0625,-1.125 0.52084,0 0.4375,0.5 -0.1875,1.125 -1.56163,1.56163 -1.40719,2.67444 0.28125,2.02653 1.79927,-0.69045 1.827,0.9572 0.0411,2.43939 -2.68228,2.2261 -4.72916,-1.93407 -2.19731,-4.46592 z m 4.96324,-23.620434 c 1.93486,-1.60579 3.55883,-0.0843 3.13175,2.93418 -0.21051,1.48791 -0.93063,2.2175 -2.18874,2.2175 -2.37419,0 -3.00409,-3.44114 -0.94301,-5.15168 z m 0.88768,2.80793 c 0.22738,0 0.67415,-0.42188 0.99283,-0.9375 0.31868,-0.51563 0.13264,-0.9375 -0.41342,-0.9375 -0.54605,0 -0.99283,0.42187 -0.99283,0.9375 0,0.51562 0.18604,0.9375 0.41342,0.9375 z m -6.97592,-8.4375 c 1.03125,0.55191 1.875,0.79253 1.875,0.53472 0,-0.25782 -0.84375,-0.92031 -1.875,-1.47222 -1.03125,-0.55191 -1.875,-0.79253 -1.875,-0.53472 0,0.25781 0.84375,0.92031 1.875,1.47222 z m 13.74926,117.307094 c 1.4146,1.16542 1.49669,1.02165 0.87116,-1.52584 -0.95362,-3.88372 -2.43292,-5.20758 -2.43292,-2.17729 0,1.32905 0.70279,2.99546 1.56176,3.70313 z m 55.06977,-11.36959 c 2.55033,19.57987 5.43594,37.86245 6.2887,39.84375 1.05159,2.44325 0.30428,-4.22783 -2.09614,-18.7119 -4.01293,-24.21384 -5.33563,-75.29498 -2.67132,-103.1631 1.6876,-17.651964 3.74957,-34.506254 4.75983,-38.906254 1.33455,-5.81238 2.371412,-10.73011 3.656782,-17.34375 1.3385,-6.88696 5.36674,-20.55545 7.18357,-24.375 1.21868,-2.56203 1.20917,-2.65131 -0.1067,-1.00243 -5.29981,6.64102 -13.672282,38.89653 -16.077572,61.93993 -2.76596,26.498754 -3.05523,32.815534 -2.7691,60.468754 0.20913,20.21241 0.78722,33.2292 1.83195,41.25 z m 2.06176,-23.28444 c 0.5119,11.00038 0.89364,13.64935 1.91071,13.25907 0.74473,-0.28578 1.271,0.13608 1.271,1.01882 0,0.82861 -0.43698,1.50655 -0.97107,1.50655 -1.13272,0 -0.41814,16.94298 1.08734,25.78125 0.52698,3.09375 1.13095,6.89062 1.34214,8.4375 0.84596,6.19603 1.328452,7.16574 3.260322,6.55259 1.04728,-0.3324 1.84377,-0.15291 1.84377,0.41548 0,0.94638 -1.34899,1.40432 -3.16188,1.07336 -0.44998,-0.0821 -0.50326,0.60617 -0.1184,1.52961 0.38485,0.92343 0.98247,2.94459 1.32803,4.49146 0.78265,3.50343 1.24195,2.55785 4.32609,-8.90625 1.17909,-4.38281 2.16016,-6.91406 2.18015,-5.625 0.0352,2.27296 -3.46407,16.36468 -5.00528,20.15625 -0.52841,1.29993 -0.45981,1.58746 0.22364,0.9375 0.5422,-0.51562 2.06106,-4.3125 3.37525,-8.4375 2.71371,-8.51777 3.21628,-6.05992 0.71886,3.51563 -0.90774,3.48046 -1.5219,6.32812 -1.36478,6.32812 0.77989,0 3.52061,-7.84817 5.01729,-14.36722 0.92633,-4.0348 1.98623,-7.62074 2.35534,-7.96875 0.36912,-0.34803 0.43682,0.21097 0.15047,1.24222 -0.28636,1.03125 -1.02299,4.40625 -1.63695,7.5 -0.61396,3.09375 -2.32341,8.761 -3.79879,12.5939 -1.47537,3.83289 -2.48377,7.16763 -2.24089,7.4105 0.74074,0.74075 4.45828,-8.31696 6.67125,-16.2544 1.15006,-4.125 2.12212,-6.86719 2.16014,-6.09375 0.10253,2.08587 -4.60739,18.82215 -6.12097,21.75032 -1.55639,3.011 -1.8673,6.81193 -0.36806,4.49968 1.46411,-2.25808 5.40202,-13.12488 6.91253,-19.0754 1.55593,-6.12941 2.79175,-8.31029 1.90186,-3.35624 -0.99423,5.53489 -4.23081,16.04384 -6.57083,21.33505 -2.53471,5.73142 -2.54782,5.78409 -1.43954,5.78409 1.96747,0 8.67815,-17.47945 10.90241,-28.39772 0.29317,-1.43905 0.85431,-2.4179 1.247,-2.17521 2.45134,1.51502 -0.7336,19.27572 -4.97815,27.76043 -2.72935,5.45587 -3.63359,8.4375 -2.55885,8.4375 0.94498,0 2.72463,-3.80583 6.18038,-13.21687 1.95333,-5.31948 2.8945,-9.06071 5.84188,-23.22188 0.25413,-1.221 0.6574,-2.02464 0.89616,-1.78588 0.90578,0.90577 -3.44344,19.4046 -6.73328,28.6391 -1.88754,5.29827 -3.18944,9.87568 -2.89311,10.172 4.03823,4.03823 11.11072,-29.2319 13.27793,-62.46147 0.25222,-3.86719 0.90029,-12.72656 1.44017,-19.6875 1.71388,-22.09793 1.70256,-75.211794 -0.0204,-95.625004 -0.41344,-4.89844 -1.03944,-12.49219 -1.3911,-16.875 -1.29437,-16.13203 -6.0762,-35.97746 -9.99497,-41.48087 -3.12093,-4.38294 -3.4393,-2.86025 -0.6336,3.0304 1.47014,3.08662 2.63971,6.14521 2.59905,6.79687 -0.0407,0.65167 -1.00469,-0.71359 -2.14227,-3.0339 -3.27664,-6.68337 -4.46449,-8.63181 -4.96013,-8.13617 -0.25405,0.25406 0.25464,1.84759 1.13043,3.54119 2.24028,4.33221 6.99389,17.70969 6.93095,19.50489 -0.0288,0.82298 -1.22916,-1.66773 -2.66735,-5.53491 -3.26467,-8.77845 -6.43893,-15.9375 -7.06655,-15.9375 -1.46207,0 -3.0446,5.33639 -2.22416,7.5 1.28207,3.38101 5.45727,20.83743 5.38151,22.5 -0.072,1.57922 -1.59994,-3.277 -4.6669,-14.83241 -1.2108,-4.56191 -2.41722,-7.45446 -2.90547,-6.96621 -0.48825,0.48825 -0.28058,2.40616 0.50014,4.61895 1.70659,4.837 4.56738,18.79999 4.12421,20.1295 -0.18586,0.55759 -1.53872,-4.20223 -3.00634,-10.57739 -1.8641,-8.09741 -2.87276,-11.02604 -3.34639,-9.71619 -0.3729,1.03125 -0.32611,2.71875 0.10396,3.75 1.3441,3.22294 4.6943,17.53775 4.21635,18.0157 -0.25015,0.25015 -0.88505,-1.1698 -1.4109,-3.15544 -0.52584,-1.98565 -1.48482,-5.61417 -2.13105,-8.06339 -0.64624,-2.44922 -1.5545,-4.45312 -2.01835,-4.45312 -0.46384,0 -0.5383,0.73828 -0.16545,1.64062 0.64273,1.55552 4.16003,14.29211 4.19413,15.1875 0.0809,2.12394 -1.94954,-2.65215 -3.29782,-7.75731 -1.19726,-4.53338 -1.92076,-5.98504 -2.48255,-4.98117 -0.48596,0.86837 -0.0362,4.17487 1.162,8.54229 1.07518,3.91905 1.74732,7.63714 1.49367,8.26243 -0.27235,0.67136 -0.49151,0.50103 -0.53522,-0.41597 -0.053,-1.11259 -0.6412,-1.40453 -2.07452,-1.02971 -1.4511,0.37947 -1.86949,0.16227 -1.52344,-0.79089 0.2624,-0.72272 0.98786,-1.19652 1.61213,-1.05288 0.81008,0.18639 0.94628,-0.61886 0.4757,-2.8125 -1.01998,-4.75467 -1.73985,-5.24834 -2.43142,-1.66741 -0.34853,1.80468 -1.33076,6.65625 -2.18273,10.78125 -0.851972,4.125 -1.332232,8.63049 -1.067252,10.0122 0.26498,1.38172 0.0403,2.65937 -0.49926,2.83923 -1.9968,0.6656 -4.35161,30.629214 -2.50313,31.850864 0.96248,0.63608 0.89675,1.04578 -0.31758,1.97953 -2.636,2.02691 -3.49743,23.69862 -2.11922,53.31499 z m 2.38906,-46.82353 c 1.45978,0.4866 1.71543,2.58399 0.3239,2.65749 -0.51562,0.0272 -1.08326,-0.65416 -1.2614,-1.51422 -0.20249,-0.97754 0.14894,-1.40612 0.9375,-1.14327 z m -0.13822,8.69762 c 0.51926,-0.32091 1.20419,0.0943 1.52206,0.92262 0.6888,1.79497 -0.0702,2.79535 -1.46631,1.93253 -1.25961,-0.77848 -1.28532,-2.09523 -0.0558,-2.85515 z m 0.46212,9.84785 c 0.96559,0 1.42541,0.61444 1.22778,1.64062 -0.38056,1.9761 -2.04439,1.8515 -2.46839,-0.18485 -0.17685,-0.84936 0.33993,-1.45577 1.24061,-1.45577 z m 0,17.8125 c 0.77344,0 1.40625,0.63281 1.40625,1.40625 0,0.77344 -0.63281,1.40625 -1.40625,1.40625 -0.77343,0 -1.40625,-0.63281 -1.40625,-1.40625 0,-0.77344 0.63282,-1.40625 1.40625,-1.40625 z m 0.0781,15.9375 c 1.65556,0 1.36725,2.01821 -0.37109,2.59765 -0.6123,0.20411 -1.11328,-0.29687 -1.11328,-1.11328 0,-0.8164 0.66797,-1.48437 1.48438,-1.48437 z m 0.32585,-23.86621 c 0.48,-0.29666 1.13771,-0.11062 1.46158,0.41342 0.69145,1.11878 -0.18616,2.82779 -1.45213,2.82779 -1.14075,0 -1.14815,-2.53746 -0.01,-3.24121 z m 0.1351,16.5459 c 0.55429,0.18476 1.00781,0.73672 1.00781,1.22656 0,0.48984 -0.45352,1.0418 -1.00781,1.22656 -0.5543,0.18477 -1.00782,-0.36718 -1.00782,-1.22656 0,-0.85938 0.45352,-1.41133 1.00782,-1.22656 z m 1.51767,-81.142684 c 1.0558,-1.0558 2.162012,-0.64302 2.162012,0.80674 0,0.77343 -0.39697,1.40625 -0.88217,1.40625 -1.182162,0 -2.028842,-1.46399 -1.279842,-2.21299 z m 0.28703,125.962994 c 0.51563,0 0.937502,0.42187 0.937502,0.9375 0,0.51562 -0.421872,0.9375 -0.937502,0.9375 -0.51562,0 -0.9375,-0.42188 -0.9375,-0.9375 0,-0.51563 0.42188,-0.9375 0.9375,-0.9375 z m 0.67339,-118.828134 c 0.474352,-1.32238 3.076612,-1.61771 3.076612,-0.34916 0,1.2282 -2.57952,3.13449 -3.071272,2.26969 -0.23414,-0.41176 -0.23654,-1.276 -0.005,-1.92053 z m 0.11765,107.199914 c 0.524922,-0.32443 1.236742,-0.13304 1.581812,0.4253 0.89083,1.44139 -0.32939,2.37138 -1.53266,1.16811 -0.673292,-0.6733 -0.689472,-1.19768 -0.0491,-1.59341 z m 0.216782,5.24541 c 0.55429,0.18476 1.00781,0.73672 1.00781,1.22656 0,0.48984 -0.45352,1.0418 -1.00781,1.22656 -0.554302,0.18477 -1.007822,-0.36718 -1.007822,-1.22656 0,-0.85938 0.45352,-1.41133 1.007822,-1.22656 z m 0.55468,-104.554694 c 1.07872,-1.07872 2.1875,-0.68273 2.1875,0.78125 0,0.77343 -0.63281,1.40625 -1.40625,1.40625 -1.46397,0 -1.859962,-1.10878 -0.78125,-2.1875 z m 0,85.312504 c 1.07872,-1.07872 2.1875,-0.68272 2.1875,0.78125 0,0.77344 -0.63281,1.40625 -1.40625,1.40625 -1.46397,0 -1.859962,-1.10878 -0.78125,-2.1875 z m 0.78125,6.875 c 0.77344,0 1.40625,0.63281 1.40625,1.40625 0,0.77344 -0.63281,1.40625 -1.40625,1.40625 -0.77343,0 -1.40625,-0.63281 -1.40625,-1.40625 0,-0.77344 0.63282,-1.40625 1.40625,-1.40625 z m 0.9375,-84.375004 c 0.77344,0 1.40625,0.587684 1.40625,1.305954 0,0.71827 -0.63281,1.54878 -1.40625,1.84558 -0.95652,0.36705 -1.40625,-0.0506 -1.40625,-1.30595 0,-1.01552 0.63248,-1.845584 1.40625,-1.845584 z m -0.23437,8.671884 c 0.64453,0.21484 1.17187,0.95312 1.17187,1.64062 0,0.6875 -0.52734,1.42578 -1.17187,1.64063 -0.69712,0.23236 -1.17188,-0.4323 -1.17188,-1.64063 0,-1.20833 0.47476,-1.87299 1.17188,-1.64062 z m 0.17592,9.28546 c 0.86006,0.17815 1.54146,0.74579 1.51422,1.26141 -0.0735,1.39152 -2.17089,1.13588 -2.65748,-0.32391 -0.26286,-0.78855 0.16572,-1.13999 1.14326,-0.9375 z m -0.34792,9.66036 c 1.39608,-0.86282 2.15511,0.13756 1.46631,1.93253 -0.31787,0.82836 -1.0028,1.24353 -1.52206,0.92262 -1.22957,-0.75992 -1.20386,-2.07667 0.0558,-2.85515 z m -0.36674,18.93667 c 0.33928,-0.33928 1.17936,-0.61687 1.86686,-0.61687 1.39659,0 1.71129,2.41674 0.41873,3.2156 -1.03233,0.63801 -3.1334,-1.75093 -2.28559,-2.59873 z m 0.65678,8.20429 c 2.06981,-0.79426 3.1265,0.26242 1.69446,1.69447 -0.84554,0.84553 -1.36962,0.84913 -2.20364,0.0151 -0.83402,-0.83402 -0.71293,-1.24059 0.50918,-1.70957 z m -0.17663,14.83119 c 1.73833,0.57944 2.02665,2.59765 0.37109,2.59765 -0.81641,0 -1.48438,-0.66797 -1.48438,-1.48437 0,-0.81641 0.50098,-1.31739 1.11329,-1.11328 z m 1.27009,-32.41367 c 1.6001,0.61402 1.40328,2.34285 -0.33259,2.92147 -0.61825,0.20608 -1.11329,-0.48431 -1.11329,-1.5526 0,-1.34823 0.43254,-1.75773 1.44588,-1.36887 z m -0.36353,24.90335 c 1.45977,0.48659 1.71542,2.58399 0.3239,2.65749 -0.51562,0.0273 -1.08326,-0.65416 -1.2614,-1.51422 -0.20249,-0.97754 0.14894,-1.40612 0.9375,-1.14327 z m -0.48283,49.19595 c 0.74899,-0.74899 2.21298,0.0977 2.21298,1.27985 0,0.48519 -0.63281,0.88217 -1.40625,0.88217 -1.44975,0 -1.86253,-1.10621 -0.80673,-2.16202 z m 1.6661,-5.33798 c 0.81641,0 1.48438,0.66797 1.48438,1.48437 0,0.81641 -0.50098,1.31739 -1.11328,1.11328 -1.73833,-0.57944 -2.02665,-2.59765 -0.3711,-2.59765 z m 1.66016,-146.035164 c 1.73833,0.57945 2.02665,2.59766 0.37109,2.59766 -0.8164,0 -1.48437,-0.66797 -1.48437,-1.48438 0,-0.8164 0.50097,-1.31738 1.11328,-1.11328 z m 0.29297,7.28516 c 0.77344,0 1.40625,0.42187 1.40625,0.9375 0,0.51562 -0.63281,0.9375 -1.40625,0.9375 -0.77344,0 -1.40625,-0.42188 -1.40625,-0.9375 0,-0.51563 0.63281,-0.9375 1.40625,-0.9375 z m -0.4583,6.54559 c 0.67613,-1.094 1.08596,-1.13668 2.01301,-0.20963 1.39814,1.39814 -0.0709,3.30829 -1.74744,2.27213 -0.71959,-0.44473 -0.8137,-1.17561 -0.26557,-2.0625 z m 0.92705,114.391914 c 1.20833,0 1.87299,0.47476 1.64062,1.17187 -0.21484,0.64454 -0.95312,1.17188 -1.64062,1.17188 -0.6875,0 -1.42578,-0.52734 -1.64063,-1.17188 -0.23237,-0.69711 0.43229,-1.17187 1.64063,-1.17187 z m -0.46875,5.625 c 0.77344,0 1.40625,0.63281 1.40625,1.40625 0,0.77344 -0.63281,1.40625 -1.40625,1.40625 -0.77344,0 -1.40625,-0.63281 -1.40625,-1.40625 0,-0.77344 0.63281,-1.40625 1.40625,-1.40625 z m -0.46875,6.5625 c 0.51562,0 0.9375,0.63281 0.9375,1.40625 0,0.77344 -0.42188,1.40625 -0.9375,1.40625 -0.51563,0 -0.9375,-0.63281 -0.9375,-1.40625 0,-0.77344 0.42187,-1.40625 0.9375,-1.40625 z M 107.1714,80.221736 c 0.77344,0 1.40625,0.61957 1.40625,1.37682 0,0.83868 -0.54965,1.16591 -1.40625,0.8372 -0.77344,-0.29679 -1.40625,-0.91637 -1.40625,-1.37682 0,-0.46046 0.63281,-0.8372 1.40625,-0.8372 z m -0.80078,100.957034 c 1.22259,-1.22259 2.20703,-0.6389 2.20703,1.30859 0,1.09102 -0.49141,1.78932 -1.11328,1.58203 -1.37001,-0.45666 -1.96232,-2.02205 -1.09375,-2.89062 z m 1.5039,-93.222664 c 0.64453,0.21485 1.17188,0.95313 1.17188,1.64063 0,0.6875 -0.52735,1.42578 -1.17188,1.64062 -0.69711,0.23237 -1.17187,-0.43229 -1.17187,-1.64062 0,-1.20834 0.47476,-1.873 1.17187,-1.64063 z m -0.52139,17.240144 c 1.12046,-1.12046 3.09952,-0.60535 3.09952,0.80674 0,0.77344 -0.60792,1.40625 -1.35092,1.40625 -1.56623,0 -2.62351,-1.33808 -1.7486,-2.21299 z m 0.0974,7.48643 c 1.45932,-0.90191 3.5487,1.11748 2.37284,2.29334 -0.59529,0.59529 -1.54098,0.7989 -2.10154,0.45245 -1.19783,-0.7403 -1.33126,-2.0907 -0.2713,-2.74579 z m 0.52995,19.20813 c 1.46259,-1.21383 2.47217,-0.45044 2.47217,1.86935 0,2.45793 -1.6379,3.03135 -2.74576,0.96128 -0.7059,-1.31897 -0.63247,-2.07867 0.27359,-2.83062 z m -0.65089,33.87196 c 0.67569,-1.69061 2.18556,-0.46097 2.18556,1.77992 0,1.04831 -0.49833,1.73169 -1.11328,1.5267 -1.32028,-0.44009 -1.72237,-1.68003 -1.07228,-3.30662 z m 0.77931,7.27147 c 0.96558,0 1.4254,0.61444 1.22777,1.64062 -0.38056,1.9761 -2.04438,1.8515 -2.46839,-0.18485 -0.17685,-0.84936 0.33994,-1.45577 1.24062,-1.45577 z m 0.13076,-77.162024 c 0.87492,-0.87491 2.21299,0.18236 2.21299,1.7486 0,0.74301 -0.63281,1.35092 -1.40625,1.35092 -1.41209,0 -1.9272,-1.97906 -0.80674,-3.09952 z m 0.80674,26.537024 c 0.96558,0 1.4254,0.61444 1.22777,1.64063 -0.38056,1.9761 -2.04438,1.85149 -2.46839,-0.18486 -0.17685,-0.84936 0.33994,-1.45577 1.24062,-1.45577 z m -0.78125,19.375 c 1.18855,-1.18855 2.1875,-0.61773 2.1875,1.25 0,1.04167 -0.625,1.875 -1.40625,1.875 -1.42726,0 -1.92306,-1.98319 -0.78125,-3.125 z m 0.3125,7.34375 c 0.53171,-0.32861 0.9375,0.45902 0.9375,1.81967 0,1.31949 -0.42188,2.39908 -0.9375,2.39908 -0.51563,0 -0.9375,-0.81885 -0.9375,-1.81967 0,-1.00082 0.42187,-2.0804 0.9375,-2.39908 z m 0.46875,8.90625 c 0.77344,0 1.40625,0.63281 1.40625,1.40625 0,0.77344 -0.63281,1.40625 -1.40625,1.40625 -0.77344,0 -1.40625,-0.63281 -1.40625,-1.40625 0,-0.77344 0.63281,-1.40625 1.40625,-1.40625 z m 2.34375,17.8125 0.63188,-5.15625 0.0833,4.6875 c 0.0458,2.57812 -0.25448,6.58594 -0.66735,8.90625 l -0.75066,4.21875 0.0355,-3.75 c 0.0195,-2.0625 0.31981,-6.07031 0.66735,-8.90625 z m 1.29336,-155.625004 c 1.25005,0 8.11334,19.58422 8.04029,22.94274 -0.0227,1.04555 -1.66842,-2.95056 -3.65705,-8.88024 -1.98863,-5.92969 -3.9136,-11.51953 -4.2777,-12.42188 -0.3641,-0.90234 -0.41159,-1.64062 -0.10554,-1.64062 z m 0.29382,146.502224 c 0.23769,0.91215 0.22206,2.17778 -0.0347,2.8125 -0.25681,0.63471 -0.45129,-0.1116 -0.43218,-1.65847 0.0191,-1.54688 0.22922,-2.06619 0.46691,-1.15403 z m 1.84873,8.65403 c 1.06291,-6.03796 1.12228,-6.15037 0.74282,-1.40625 -0.22684,2.83594 -0.4161,6.94922 -0.42058,9.14062 -0.005,2.19141 -0.43673,3.98438 -0.96054,3.98438 -1.10604,0 -0.96329,-2.62069 0.6383,-11.71875 z m 1.88127,2.8125 c 0.83509,-6.73453 2.40024,-15.56383 2.70496,-15.25911 0.4632,0.4632 -2.26725,23.41047 -2.85558,23.99879 -0.50852,0.50853 -0.42981,-4.05877 0.15062,-8.73968 z m 2.37667,5.15625 c 0.44167,-2.32031 1.15251,-8.22656 1.57965,-13.125 0.71799,-8.23381 0.78435,-8.44616 0.87887,-2.8125 0.10444,6.2253 -1.31872,19.60385 -2.17666,20.46179 -0.97508,0.97508 -1.06226,-0.42443 -0.28186,-4.52429 z m 3.10591,0.76274 c 0.26799,-0.26799 0.87538,-5.71721 1.34975,-12.10938 l 0.8625,-11.62211 -0.39959,12.77471 c -0.36261,11.5926 -2.07203,22.52944 -2.2405,14.33467 -0.0327,-1.58985 0.15984,-3.1099 0.42784,-3.37789 z m 0.81506,-155.450244 c 0.50874,0 4.33755,11.27832 4.27883,12.60391 -0.0519,1.17237 -3.19223,-6.67867 -4.06961,-10.17441 -0.33537,-1.33623 -0.42952,-2.4295 -0.20922,-2.4295 z m 2.44768,142.031254 0.55469,-12.1875 0.0979,13.59375 c 0.0539,7.47656 -0.23981,14.64844 -0.65264,15.9375 -0.87436,2.73018 -0.87436,1.8672 0,-17.34375 z m 2.87783,5.625 c 0.49944,-3.30553 0.61415,-1.82832 0.38906,5.01052 -0.17556,5.33392 -0.56055,9.93939 -0.85554,10.23438 -0.72366,0.72366 -0.41318,-9.42301 0.46648,-15.2449 z m 1.5449,-13.34648 c 0.21549,1.42505 0.20973,3.53443 -0.0128,4.6875 -0.22253,1.15306 -0.39884,-0.0128 -0.3918,-2.59102 0.007,-2.57813 0.18911,-3.52154 0.4046,-2.09648 z m -31.610232,87.21187 c 1.03125,0.26968 1.875002,0.33372 1.875002,0.14232 0,-0.19139 -0.843752,-0.79955 -1.875002,-1.35146 -1.03586,-0.55438 -1.875,-0.61807 -1.875,-0.14233 0,0.47363 0.84375,1.08179 1.875,1.35147 z m 1.50391,-21.15054 c 0.311522,-0.31153 0.344832,-1.12013 0.074,-1.79688 -0.29927,-0.74787 -0.52142,-0.52573 -0.5664,0.56641 -0.0407,0.98827 0.18087,1.54199 0.49239,1.23047 z m 2.385492,7.7539 c 0.5272,0.89987 0.60488,0.3935 0.21572,-1.40625 -0.33448,-1.54688 -0.97888,-3.44531 -1.43201,-4.21875 -0.5272,-0.89987 -0.60488,-0.3935 -0.21572,1.40625 0.33448,1.54687 0.97888,3.44531 1.43201,4.21875 z m 2.6731,-1.40625 c 0.51562,-0.31868 0.93104,-1.08186 0.92314,-1.69596 -0.009,-0.67088 -0.37709,-0.55525 -0.92314,0.28971 -1.16393,1.80105 -1.16393,2.12559 0,1.40625 z m 4.75826,16.91873 c 0.56189,0.34726 0.35695,-0.65391 -0.45541,-2.22484 -0.81236,-1.57093 -1.93674,-3.14037 -2.49862,-3.48762 -0.56188,-0.34726 -0.35694,0.65391 0.45542,2.22484 0.81236,1.57093 1.93673,3.14037 2.49861,3.48762 z m 2.22712,-236.135044 c 0.71541,-0.94397 2.07309,-2.33834 3.01706,-3.09859 1.59894,-1.28776 1.5748,-1.31385 -0.35292,-0.38157 -1.13807,0.55039 -2.49634,1.73382 -3.01836,2.62984 -1.37131,2.35373 -1.16341,2.85279 0.35422,0.85032 z m -0.47655,234.183144 c 1.57612,0.97409 9.43607,-18.7345 9.42028,-23.6211 -0.005,-1.56246 -1.24264,0.98425 -3.10904,6.39779 -1.70536,4.94644 -3.98695,10.43081 -5.07019,12.1875 -2.29229,3.71737 -2.43531,4.29772 -1.24105,5.03581 z m 1.07756,15.5738 c 1.64825,6.61204 9.99685,7.79879 11.44724,1.62721 0.53097,-2.25934 0.45572,-4.04585 -0.21721,-5.15625 -0.86954,-1.43484 -0.94238,-1.31171 -0.46834,0.79172 1.8634,8.26823 -7.8304,9.7132 -9.91287,1.47762 -1.32268,-5.23084 -2.98736,-8.90539 -2.22253,-4.90593 0.29581,1.54687 0.91398,4.32141 1.37371,6.16563 z m 3.68566,0.42345 c 2.3957,2.88664 4.96564,1.71773 4.36473,-1.98523 -0.684,-4.21497 -2.13908,-6.0101 -4.8716,-6.0101 -2.33781,0 -2.02429,4.94546 0.50687,7.99533 z m -0.54613,-9.87033 c 0.22738,0 0.67415,-0.42188 0.99283,-0.9375 0.31867,-0.51563 0.13263,-0.9375 -0.41342,-0.9375 -0.54606,0 -0.99283,0.42187 -0.99283,0.9375 0,0.51562 0.18604,0.9375 0.41342,0.9375 z M 119.61849,7.3226558 c 3.46245,-4.14387 6.43759,-4.06694 8.22575,0.21272 2.0064,4.8020102 1.69113,6.6476502 -1.68847,9.8844902 l -3.04687,2.91816 3.50497,-2.16752 c 5.20729,-3.22026 5.5464,-8.6443702 0.88283,-14.1206502 -2.41515,-2.83603 -6.80368,-1.19355 -9.39341,3.51563 -1.69199,3.0767202 -1.19145,2.9965102 1.5152,-0.24283 z m 3.02166,9.1223002 c 4.43411,-0.14112 5.86327,-8.3565402 1.59665,-9.1782202 -3.11274,-0.59946 -5.32446,3.4626602 -3.56743,6.5520802 0.82611,1.45258 1.71296,2.63435 1.97078,2.62614 z m -1.26006,206.529004 c 0.2568,-0.63472 0.27243,-1.90035 0.0347,-2.8125 -0.2377,-0.91216 -0.44781,-0.39285 -0.46692,1.15403 -0.0191,1.54687 0.17538,2.29318 0.43218,1.65847 z"
     id="path4177"
     inkscape:connector-curvature="0" />
</svg>
